<?xml version="1.0" standalone="no"?>
<!DOCTYPE svg PUBLIC "-//W3C//DTD SVG 20010904//EN"
 "http://www.w3.org/TR/2001/REC-SVG-20010904/DTD/svg10.dtd">
<svg version="1.0" xmlns="http://www.w3.org/2000/svg"
 width="6000.000000pt" height="3439.000000pt" viewBox="0 0 6000.000000 3439.000000"
 preserveAspectRatio="xMidYMid meet">

<g transform="translate(0.000000,3439.000000) scale(0.100000,-0.100000)"
fill="#000000" stroke="none">
<path d="M0 17195 l0 -17195 30000 0 30000 0 0 17195 0 17195 -30000 0 -30000
0 0 -17195z m19409 16268 c-71 -159 -236 -602 -309 -833 -29 -91 -55 -169 -58
-175 -3 -5 -7 -16 -8 -25 0 -8 -22 -89 -47 -180 -79 -282 -139 -571 -174 -835
-23 -184 -24 -547 0 -673 9 -50 17 -95 16 -100 0 -4 -23 56 -50 133 -68 188
-145 447 -165 553 -25 126 -22 385 5 567 25 168 51 286 63 279 4 -3 5 2 2 10
-12 33 89 325 179 519 54 115 145 277 156 277 4 0 8 6 8 13 0 41 373 537 404
537 5 0 -5 -30 -22 -67z m-1429 -1959 c-89 -325 -92 -635 -8 -933 79 -282 198
-509 561 -1070 320 -496 469 -751 623 -1065 40 -81 75 -150 77 -152 2 -3 58
-20 123 -39 781 -225 1303 -690 1331 -1187 7 -112 1 -137 -24 -117 -16 13 -16
12 0 -11 10 -14 17 -43 17 -70 l-1 -45 -14 40 c-11 30 -11 41 -2 47 8 5 9 8 1
8 -17 0 -26 31 -13 46 6 7 9 19 6 26 -3 7 -6 4 -7 -7 -1 -19 -2 -19 -20 4 -11
13 -20 28 -20 35 0 6 5 4 10 -4 11 -17 13 -10 4 14 -3 9 -10 13 -15 10 -5 -3
-4 7 1 21 14 36 13 40 -6 24 -15 -12 -16 -11 -9 11 7 23 7 24 -11 10 -12 -9
-15 -9 -7 -1 6 7 10 19 9 25 -2 6 -1 8 2 3 2 -4 12 -12 22 -17 15 -8 18 -6 16
13 -2 13 -8 32 -14 43 -10 16 -11 17 -12 2 0 -9 5 -20 10 -23 6 -3 10 -11 10
-18 0 -6 -7 -2 -15 9 -16 24 -23 83 -11 102 4 7 3 12 -3 12 -5 0 -12 -6 -14
-12 -4 -10 -6 -10 -6 -1 -1 6 4 15 9 18 6 3 10 11 10 16 0 6 -5 7 -12 3 -7 -5
-8 -3 -3 6 4 7 2 16 -6 21 -8 4 -15 13 -15 19 -3 23 -5 24 -15 10 -8 -12 -9
-10 -4 8 3 12 2 22 -3 22 -5 0 -9 6 -9 13 0 45 -199 258 -338 362 -162 121
-360 229 -573 311 -119 47 -312 107 -319 100 -2 -2 16 -55 40 -117 103 -264
159 -462 192 -676 22 -151 20 -440 -4 -585 -63 -363 -259 -695 -551 -931 -91
-74 -245 -175 -322 -213 -55 -27 -56 -28 -51 -62 l6 -35 -21 21 c-26 26 -35
27 -93 7 -35 -12 -82 -15 -205 -13 l-159 3 35 19 c76 40 211 150 306 248 192
198 304 414 361 694 26 127 25 533 0 649 -40 179 -69 244 -262 590 -68 121
-159 290 -204 375 l-80 155 -138 -2 c-599 -8 -1222 -179 -1648 -451 -172 -110
-321 -243 -419 -375 -99 -132 -153 -251 -186 -407 l-18 -85 -1 72 c-3 232 103
451 328 673 119 119 139 135 276 224 407 266 984 433 1597 462 76 4 138 10
138 14 0 4 -6 20 -14 36 -207 420 -388 847 -370 875 4 7 3 9 -3 6 -12 -7 -72
204 -103 362 -126 641 -43 1286 238 1848 25 51 47 91 49 89 2 -2 -10 -52 -27
-112z m12241 -737 c41 -13 133 -61 291 -153 37 -21 643 -372 1347 -778 704
-407 1277 -744 1274 -749 -3 -6 -1 -7 5 -3 14 8 484 -263 476 -275 -3 -5 1 -7
8 -4 7 3 53 -19 102 -47 49 -29 114 -67 145 -84 31 -17 74 -43 95 -57 21 -15
43 -27 48 -27 5 0 6 -4 3 -10 -4 -6 1 -7 11 -3 13 5 15 3 9 -7 -5 -9 -4 -11 4
-6 14 9 83 -32 76 -45 -4 -5 0 -6 8 -3 8 3 18 0 22 -6 3 -6 1 -9 -6 -8 -6 2
-14 -4 -16 -12 -3 -9 -1 -11 4 -5 12 15 50 18 59 4 5 -8 3 -9 -6 -4 -9 5 -11
4 -6 -4 4 -6 12 -9 17 -5 6 3 19 -2 30 -12 10 -9 19 -14 19 -10 0 4 9 2 20 -4
23 -12 18 -32 -5 -24 -8 4 -13 9 -11 13 2 3 -9 6 -26 7 -35 1 -26 -9 21 -25
25 -8 37 -8 47 0 8 6 14 7 14 2 0 -5 -12 -15 -26 -21 -14 -7 -23 -9 -20 -4 2
4 -12 9 -32 10 -26 2 -33 -1 -23 -7 8 -5 20 -7 28 -4 7 3 13 0 13 -6 0 -17 19
-13 50 9 24 17 29 18 34 4 3 -8 10 -13 15 -10 5 4 23 -5 39 -19 16 -13 32 -22
35 -18 4 3 9 -2 13 -11 3 -9 10 -14 14 -11 4 3 14 -3 21 -12 12 -15 12 -16 -6
-8 -11 4 -37 7 -57 6 -20 -1 -39 3 -43 9 -3 5 -11 10 -16 10 -6 0 -8 -4 -4 -9
3 -5 1 -12 -5 -16 -6 -4 -8 -11 -5 -16 4 -5 1 -9 -4 -9 -13 0 -15 17 -3 24 5
3 8 15 7 28 -2 25 -30 37 -48 19 -8 -8 -6 -11 6 -11 9 0 17 -4 17 -10 0 -14
-33 -12 -50 3 -12 10 -12 9 -2 -4 10 -13 8 -18 -14 -27 -14 -7 -37 -10 -52 -7
-23 4 -24 4 -7 -4 11 -5 15 -10 8 -10 -20 -2 -43 11 -37 20 3 5 -3 9 -13 9
-17 0 -92 36 -103 49 -3 3 -27 17 -55 31 -90 45 -210 121 -207 132 1 5 -2 7
-8 3 -6 -4 -81 34 -168 83 -86 49 -179 102 -207 117 -27 15 -54 31 -60 35 -12
9 -1019 586 -1130 648 -44 24 -84 48 -90 52 -5 4 -30 19 -55 33 -55 31 -407
233 -800 460 -162 94 -342 197 -400 230 -115 65 -191 109 -320 184 -47 28
-148 86 -224 129 -76 43 -157 89 -179 102 -130 75 -205 99 -286 89 -35 -5 -18
4 74 38 133 48 221 57 306 32z m-977 -1295 c3 -5 -1 -9 -9 -9 -8 0 -12 4 -9 9
3 4 7 8 9 8 2 0 6 -4 9 -8z m-49 -173 c-4 -5 -12 -9 -18 -8 -9 0 -8 2 1 6 6 2
9 10 6 15 -4 7 -2 8 5 4 6 -4 9 -12 6 -17z m-55 -169 c0 -5 -2 -10 -4 -10 -3
0 -8 5 -11 10 -3 6 -1 10 4 10 6 0 11 -4 11 -10z m205 -141 c-4 -5 -12 -9 -18
-8 -9 0 -8 2 1 6 6 2 9 10 6 15 -4 7 -2 8 5 4 6 -4 9 -12 6 -17z m-248 -25 c0
-7 -6 -10 -14 -7 -7 3 -13 8 -13 12 0 4 6 8 13 8 8 0 14 -6 14 -13z m-24 -29
c-3 -9 -8 -14 -10 -11 -3 3 -2 9 2 15 9 16 15 13 8 -4z m19 -22 c-6 -3 -9 -10
-6 -15 4 -7 2 -8 -5 -4 -9 6 -9 11 0 22 6 8 15 12 18 8 3 -4 0 -9 -7 -11z
m-28 -22 c3 -5 -1 -11 -9 -14 -9 -4 -12 -1 -8 9 6 16 10 17 17 5z m-36 -137
c-12 -12 -17 -13 -23 -3 -5 8 -4 10 4 5 6 -4 14 0 17 9 4 9 9 13 12 10 3 -3
-1 -13 -10 -21z m-6 -50 c-14 -18 -18 -20 -25 -7 -5 8 -6 17 -3 20 3 4 6 1 6
-6 0 -7 5 -9 10 -6 6 4 8 10 6 14 -3 4 1 8 9 8 10 0 10 -5 -3 -23z m230 -1
c-6 -3 -9 -10 -5 -16 5 -8 2 -8 -9 0 -8 7 -19 9 -23 5 -5 -4 -6 -2 -2 3 3 6
16 11 29 12 13 0 17 -1 10 -4z m-252 -55 c0 -20 -15 -24 -25 -8 -3 6 -1 10 5
10 7 0 9 9 5 23 -5 17 -4 19 4 7 6 -8 11 -23 11 -32z m30 8 c0 -8 -4 -17 -8
-20 -4 -2 -8 4 -8 15 0 10 4 19 8 19 4 0 8 -6 8 -14z m-75 -145 c2 -39 1 -39
-35 -31 -3 0 3 5 13 11 9 5 17 15 17 20 0 6 -4 8 -9 5 -4 -3 -6 6 -3 20 6 34
14 23 17 -25z m205 -30 c-1 -9 -7 -1 -15 18 -19 44 -19 64 0 27 8 -15 15 -36
15 -45z m38 24 c-6 -14 -13 -23 -15 -21 -5 5 15 46 22 46 3 0 -1 -11 -7 -25z
m-235 -44 c4 -1 7 -5 7 -11 0 -5 -6 -7 -13 -4 -8 3 -13 -3 -13 -15 0 -11 3
-18 7 -15 13 7 19 -27 9 -44 -9 -14 -10 -12 -4 7 4 14 2 21 -4 17 -5 -3 -17 5
-26 19 -18 28 -21 39 -6 30 6 -3 10 -2 10 4 0 5 -6 12 -12 15 -7 2 -2 3 12 1
14 -2 28 -4 33 -4z m217 -11 c0 -5 -8 -10 -17 -10 -15 0 -16 2 -3 10 19 12 20
12 20 0z m-252 -51 c8 -12 16 -40 18 -63 9 -81 16 -116 23 -112 3 2 7 -12 9
-32 1 -19 7 -41 13 -49 9 -9 8 -17 0 -27 -12 -15 1 -32 17 -22 4 2 9 -9 10
-26 3 -40 12 -54 23 -37 13 21 11 -4 -3 -38 -6 -15 -10 -34 -9 -41 1 -7 -2
-12 -6 -11 -19 3 -27 -2 -14 -10 21 -13 4 -30 -27 -26 -15 2 -21 2 -14 -1 10
-5 10 -9 1 -20 -10 -12 -9 -18 3 -30 13 -13 15 -13 16 1 1 8 3 22 4 30 1 9 5
12 10 7 10 -10 -9 -70 -28 -93 -8 -9 -11 -18 -8 -21 9 -9 -19 -92 -36 -106
-10 -9 -10 -11 -1 -6 9 5 12 3 7 -5 -4 -6 -9 -24 -11 -40 -2 -16 -11 -46 -21
-67 -9 -22 -16 -47 -15 -58 2 -12 -1 -16 -10 -11 -7 5 -10 4 -6 -2 10 -16 -54
-224 -66 -216 -5 3 -7 2 -4 -3 9 -16 -13 -105 -25 -98 -7 4 -8 2 -4 -4 4 -6 4
-23 0 -37 -5 -22 -9 -24 -23 -13 -14 12 -15 11 -2 -5 12 -15 6 -41 -44 -205
-32 -103 -60 -191 -63 -197 -4 -5 -7 -14 -7 -20 -2 -34 -18 -74 -27 -69 -7 4
-8 2 -4 -4 9 -15 -14 -103 -25 -96 -5 3 -6 10 -3 16 4 7 2 8 -5 4 -9 -6 -9
-11 -1 -21 8 -10 8 -25 -3 -57 -8 -24 -18 -58 -22 -76 -3 -18 -11 -30 -16 -27
-5 4 -6 0 -4 -7 5 -12 -101 -375 -149 -513 -7 -22 -22 -67 -31 -100 -10 -33
-21 -64 -26 -69 -4 -5 -5 -15 -2 -22 3 -8 1 -14 -5 -14 -5 0 -10 -6 -9 -12 1
-32 -4 -49 -12 -44 -5 4 -7 -4 -3 -16 3 -14 1 -19 -6 -14 -8 4 -10 2 -6 -8 3
-8 -13 -72 -35 -143 -53 -166 -54 -170 -91 -293 -17 -58 -63 -206 -102 -330
-90 -290 -134 -435 -149 -487 -7 -24 -16 -43 -21 -43 -5 0 -7 -4 -4 -9 6 -9
-20 -104 -37 -136 -6 -11 -11 -27 -12 -35 -1 -8 -2 -23 -3 -34 -1 -12 -7 -16
-18 -12 -13 5 -14 4 -6 -7 11 -13 10 -19 -16 -97 -3 -8 -4 -18 -4 -22 1 -5 -2
-8 -7 -8 -5 0 -9 -6 -8 -12 1 -30 -4 -49 -10 -45 -5 3 -9 -11 -10 -31 -1 -19
-5 -38 -10 -41 -4 -3 -8 -13 -8 -21 0 -8 -5 -14 -12 -13 -6 1 -17 -5 -25 -15
-11 -15 -11 -16 3 -5 9 7 18 10 22 7 6 -7 -19 -99 -36 -129 -6 -11 -10 -24 -9
-28 2 -5 -7 -35 -18 -66 -11 -32 -20 -65 -20 -75 0 -10 -5 -14 -12 -10 -6 4
-8 3 -5 -3 4 -6 0 -33 -9 -59 -8 -27 -17 -59 -20 -71 -2 -12 -9 -35 -16 -50
-6 -16 -12 -31 -13 -35 -2 -5 -4 -10 -5 -13 -1 -3 -3 -9 -4 -14 0 -5 -4 -12
-8 -16 -4 -4 -4 -13 -1 -21 3 -8 0 -14 -7 -14 -6 0 -8 -4 -5 -10 3 -5 0 -20
-6 -32 -7 -13 -14 -34 -15 -48 -2 -13 -13 -32 -26 -42 -13 -10 -16 -16 -7 -13
15 6 15 1 6 -39 -6 -25 -14 -46 -19 -46 -5 0 -6 5 -2 12 4 7 3 8 -5 4 -8 -6
-9 -12 -2 -20 6 -7 8 -16 4 -20 -4 -4 -8 -13 -9 -19 0 -7 -2 -20 -2 -29 -1
-10 -5 -17 -10 -15 -10 3 -57 -41 -51 -48 3 -3 15 4 27 15 18 17 22 18 22 5 0
-8 -5 -15 -11 -15 -5 0 -8 -4 -4 -9 3 -5 -2 -28 -11 -51 -14 -35 -19 -39 -32
-28 -13 11 -15 10 -9 -4 3 -9 1 -19 -6 -22 -7 -4 -2 -4 9 -2 17 3 20 -1 16
-16 -4 -15 -7 -17 -14 -6 -5 8 -6 4 -2 -14 8 -36 -12 -74 -32 -57 -9 7 -14 8
-14 1 0 -6 7 -15 16 -20 19 -11 11 -32 -12 -32 -8 0 -12 -5 -9 -10 4 -6 10 -8
15 -5 5 3 3 -11 -4 -32 -12 -35 -36 -57 -36 -33 0 6 5 8 12 4 8 -5 9 -2 5 10
-4 10 -7 30 -8 44 l-1 27 -7 -25 c-6 -20 -9 -22 -16 -10 -5 8 -10 17 -10 20
-1 3 -5 20 -9 38 -6 27 -10 31 -22 21 -8 -6 -14 -22 -14 -34 0 -23 -24 -40
-41 -29 -5 3 -9 13 -8 22 0 14 2 13 9 -3 7 -17 9 -17 9 -3 1 14 -37 47 -40 36
0 -2 -3 -14 -5 -28 -6 -32 -26 -44 -41 -23 -10 12 -10 20 -1 30 6 8 7 13 2 11
-5 -2 -9 2 -9 7 0 6 4 9 10 7 5 -2 7 0 3 3 -4 4 -3 17 3 29 10 20 10 20 -5 2
-9 -11 -16 -15 -16 -9 0 7 6 18 13 25 6 7 13 26 14 43 1 16 7 31 13 33 5 2 8
7 5 12 -4 7 32 133 52 180 3 8 6 18 5 22 -1 6 32 117 45 148 3 8 5 18 5 23 -1
4 2 7 8 7 5 0 7 7 4 15 -5 11 -1 14 12 9 15 -5 16 -4 5 4 -13 9 -12 19 4 70
11 33 24 58 29 55 5 -4 6 -1 2 6 -7 11 14 97 36 151 6 14 12 32 13 40 5 40 38
139 45 135 5 -3 6 5 2 17 -4 16 -2 19 8 13 9 -6 11 -4 5 5 -9 14 24 130 37
130 5 0 6 5 3 10 -3 6 13 72 38 148 24 75 68 217 97 314 30 97 59 174 64 171
5 -3 6 -1 2 6 -7 10 200 709 214 721 3 3 5 12 6 20 1 18 14 60 220 720 42 135
78 257 81 273 3 15 10 27 15 27 5 0 7 4 4 8 -4 7 58 223 81 282 4 8 7 17 7 20
12 51 43 140 49 140 4 0 6 4 3 8 -7 11 74 276 85 280 5 2 7 7 4 12 -4 7 21 97
53 190 3 8 6 17 7 20 12 47 29 79 38 73 8 -4 8 -1 -1 9 -12 16 -12 19 9 73 7
17 13 37 15 46 2 9 9 29 15 45 7 16 13 34 14 39 1 11 14 62 21 83 2 7 4 14 4
17 0 3 8 24 16 47 9 24 17 48 18 53 1 6 6 25 10 43 5 19 12 29 18 26 7 -4 8
-2 4 4 -8 13 35 163 45 156 4 -2 5 5 2 15 -3 10 1 30 8 42 7 13 12 30 10 38
-1 8 2 10 10 5 9 -5 10 -2 6 10 -10 25 2 40 19 25 8 -6 15 -9 15 -5 1 3 2 9 3
14 1 4 5 13 10 20 5 8 4 18 -3 25 -9 9 -10 7 -5 -7 6 -15 4 -17 -6 -11 -8 5
-11 4 -6 -3 3 -6 2 -13 -3 -16 -19 -12 -20 12 -5 58 9 25 20 46 26 46 5 0 6 5
3 10 -8 14 13 80 34 104 10 12 11 16 3 12 -11 -7 -12 -4 -4 10 5 11 7 25 5 32
-3 6 0 12 7 12 6 0 8 5 4 13 -5 8 -2 7 9 -2 10 -8 20 -11 24 -7 3 3 1 6 -5 6
-7 0 -12 5 -12 11 0 5 4 8 9 5 5 -3 8 5 7 19 -1 23 -2 24 -13 8 -16 -21 -17
-9 -1 20 7 12 12 29 13 37 1 23 27 100 34 100 3 0 12 -10 19 -21z m234 -6 c-6
-3 -9 -10 -6 -15 4 -6 2 -8 -4 -4 -5 3 -12 3 -15 -1 -2 -5 -2 -3 -1 4 2 6 -2
14 -9 16 -7 2 2 4 18 4 17 0 24 -2 17 -4z m-20 -70 c-3 -16 -7 -22 -10 -15 -4
13 4 42 11 42 2 0 2 -12 -1 -27z m5160 -83 c-7 -12 -8 -20 -1 -24 5 -2 4 -3
-3 -2 -7 2 -12 13 -10 24 2 15 -2 22 -13 22 -9 0 -13 -4 -10 -10 4 -6 -2 -7
-15 -2 -25 9 -23 28 3 25 9 -2 17 1 17 7 0 17 -17 19 -45 4 -15 -8 -30 -12
-33 -9 -3 2 15 13 39 24 l44 20 19 -31 c15 -24 17 -34 8 -48z m208 65 c0 -2
-6 -5 -13 -8 -8 -3 -14 1 -14 8 0 7 6 11 14 8 7 -3 13 -6 13 -8z m-5484 -37
c6 -28 15 -43 24 -42 9 1 16 -9 17 -25 1 -24 1 -25 -13 -6 -8 10 -14 13 -14 6
0 -7 6 -19 14 -27 8 -8 13 -23 11 -34 -2 -11 0 -18 6 -15 5 4 9 1 9 -4 0 -10
-14 -15 -32 -12 -4 0 -5 -7 -1 -17 5 -14 3 -13 -10 3 -11 13 -16 40 -17 78 0
31 -4 57 -10 57 -5 0 -7 6 -4 14 3 8 1 17 -5 21 -16 9 -13 45 3 45 7 0 17 -18
22 -42z m5374 32 c0 -5 -7 -10 -15 -10 -8 0 -15 5 -15 10 0 6 7 10 15 10 8 0
15 -4 15 -10z m156 -46 c-8 -9 -12 -7 -17 10 -3 14 -12 20 -25 18 -15 -2 -16
-1 -5 7 20 13 62 -18 47 -35z m-5450 21 c17 -17 10 -80 -8 -69 -7 4 -8 -2 -3
-17 4 -13 4 -21 0 -16 -14 12 -12 51 2 66 12 11 11 16 -3 32 -20 22 -9 26 12
4z m5238 -4 c3 -5 0 -14 -7 -19 -10 -8 -13 -6 -14 9 -2 19 11 26 21 10z m183
-16 c0 -8 -4 -15 -9 -15 -10 0 -11 14 -1 23 9 10 10 9 10 -8z m-5474 -10 c-3
-9 -8 -14 -10 -11 -3 3 -2 9 2 15 9 16 15 13 8 -4z m5297 -35 c-12 -8 -12 -10
-1 -10 8 0 12 -2 9 -5 -3 -3 -13 -2 -22 1 -14 5 -15 9 -4 15 7 5 18 9 23 9 6
0 3 -5 -5 -10z m50 6 c0 -3 -4 -8 -10 -11 -5 -3 -10 -1 -10 4 0 6 5 11 10 11
6 0 10 -2 10 -4z m288 -24 c2 -7 -1 -12 -8 -12 -6 0 -9 4 -6 9 4 5 1 12 -4 14
-6 3 -5 4 2 3 6 -1 14 -8 16 -14z m-293 -12 c-3 -5 -12 -10 -18 -10 -7 0 -6 4
3 10 19 12 23 12 15 0z m-5305 -35 c0 -5 -5 -3 -10 5 -5 8 -10 20 -10 25 0 6
5 3 10 -5 5 -8 10 -19 10 -25z m5648 0 c-3 -3 -9 2 -12 12 -6 14 -5 15 5 6 7
-7 10 -15 7 -18z m19 -7 c-3 -8 -6 -5 -6 6 -1 11 2 17 5 13 3 -3 4 -12 1 -19z
m48 -16 c-3 -3 -11 0 -18 7 -9 10 -8 11 6 5 10 -3 15 -9 12 -12z m-25 -12 c0
-5 -2 -10 -4 -10 -3 0 -8 5 -11 10 -3 6 -1 10 4 10 6 0 11 -4 11 -10z m-5713
-32 c-3 -8 -6 -5 -6 6 -1 11 2 17 5 13 3 -3 4 -12 1 -19z m-13060 -133 c0 -8
-4 -12 -9 -9 -5 3 -6 10 -3 15 9 13 12 11 12 -6z m-58 -49 c-19 -17 -33 -34
-31 -39 1 -5 -2 -6 -7 -3 -5 4 -11 1 -13 -4 -2 -6 -17 -13 -33 -15 -27 -5 -28
-4 -10 7 11 7 25 13 30 13 6 1 9 7 7 14 -1 7 2 10 8 6 5 -3 10 -1 10 4 0 6 5
11 11 11 13 0 40 26 34 32 -3 3 2 5 12 5 11 0 6 -9 -18 -31z m13034 -21 c-3
-9 -8 -14 -10 -11 -3 3 -2 9 2 15 9 16 15 13 8 -4z m-13148 -97 c0 -35 -4 -44
-20 -46 -16 -3 -18 -1 -7 9 6 7 12 17 12 22 0 5 -10 -2 -21 -17 -19 -24 -20
-28 -5 -39 11 -9 13 -16 6 -27 -9 -13 -12 -13 -24 3 -18 23 -29 22 -21 -2 3
-11 1 -22 -5 -26 -5 -3 -10 -15 -10 -26 0 -10 -4 -19 -10 -19 -5 0 -10 -7 -10
-16 0 -8 -7 -22 -15 -30 -8 -9 -15 -24 -15 -34 0 -10 -5 -22 -12 -26 -7 -5 -8
-2 -3 7 7 12 5 12 -6 1 -12 -11 -12 -14 1 -22 8 -5 10 -10 4 -10 -6 0 -17 -13
-24 -30 -7 -16 -23 -36 -37 -45 -13 -9 -28 -26 -34 -38 l-10 -22 5 22 c3 16 0
20 -11 16 -8 -3 -12 -12 -8 -20 4 -11 1 -13 -10 -9 -9 3 -14 2 -11 -2 2 -4 -2
-18 -10 -32 -10 -19 -13 -21 -14 -8 0 14 -7 17 -30 14 l-29 -3 15 36 c8 20 20
41 27 46 7 6 13 17 15 25 2 8 8 18 14 21 5 3 9 8 8 10 -5 10 43 78 51 73 5 -3
6 2 3 10 -4 10 1 18 11 22 9 4 21 18 26 31 5 13 13 22 17 19 10 -6 9 -36 -2
-54 -15 -25 3 -11 24 18 14 19 17 30 9 28 -8 -2 -15 6 -17 17 -3 25 36 65 66
68 11 0 18 5 16 9 -3 5 -10 5 -16 2 -7 -4 -8 -2 -4 5 5 7 17 9 29 5 17 -5 19
-4 10 6 -9 10 -6 18 13 39 13 14 29 26 34 26 6 0 10 4 9 9 0 5 5 13 13 17 7 5
13 9 13 9 0 0 0 -19 0 -42z m-365 -483 c-13 -15 -30 -12 -30 6 0 6 4 8 9 4 5
-3 13 0 16 6 4 5 9 8 12 5 3 -3 0 -12 -7 -21z m26 10 c-3 -9 0 -15 9 -15 8 0
15 -4 15 -9 0 -6 -9 -8 -20 -6 -12 2 -21 -3 -25 -15 -4 -12 -12 -17 -22 -13
-9 4 -14 2 -10 -3 10 -16 -10 -41 -23 -28 -8 8 -7 14 4 23 8 7 12 19 9 28 -5
12 -1 14 14 9 14 -5 23 0 33 19 15 27 26 34 16 10z m-59 -125 c-1 -21 -10 -18
-13 5 -1 8 2 15 6 15 5 0 8 -9 7 -20z m16156 -34 c27 -11 908 -517 1222 -701
50 -29 502 -290 1005 -580 503 -290 940 -542 970 -560 30 -18 1005 -581 2165
-1250 1161 -670 2135 -1232 2165 -1250 30 -18 129 -76 220 -128 1733 -997
1764 -1016 1816 -1071 74 -78 107 -164 108 -281 1 -78 -4 -106 -38 -210 -21
-66 -46 -147 -56 -180 -11 -33 -32 -103 -48 -155 -17 -52 -44 -140 -61 -195
-71 -233 -646 -2101 -681 -2215 -22 -69 -76 -244 -120 -390 -45 -146 -111
-359 -147 -475 -109 -354 -135 -438 -343 -1115 -110 -360 -209 -680 -219 -710
-10 -30 -28 -89 -41 -130 -12 -41 -30 -102 -41 -135 -10 -33 -39 -127 -64
-210 -226 -737 -296 -958 -313 -991 -36 -69 -106 -123 -182 -139 l-34 -8 32
37 c17 20 38 49 47 65 11 23 382 1214 581 1871 19 63 53 171 74 240 22 69 314
1018 650 2110 336 1092 615 1996 620 2010 4 14 22 70 39 125 16 55 69 226 118
380 84 270 87 283 87 375 0 72 -5 107 -21 146 -26 66 -75 137 -116 168 -39 29
-9466 5472 -9522 5497 -22 10 -55 19 -74 19 -29 0 -32 2 -21 15 33 40 152 51
223 21z m-16158 -4 c-3 -3 -11 0 -18 7 -9 10 -8 11 6 5 10 -3 15 -9 12 -12z
m-42 -37 c-3 -9 -8 -14 -10 -11 -3 3 -2 9 2 15 9 16 15 13 8 -4z m-17 -161
c-3 -8 0 -14 7 -15 9 0 9 -2 0 -5 -11 -5 -9 -58 4 -94 3 -8 7 -28 8 -45 2 -16
16 -64 31 -105 257 -716 1263 -1256 2515 -1351 207 -15 726 -7 914 16 601 71
1111 230 1525 475 470 278 741 626 805 1032 l13 83 1 -85 c4 -390 -281 -806
-761 -1109 -396 -249 -932 -426 -1513 -500 -876 -111 -1825 26 -2513 362 -59
28 -113 51 -120 50 -7 0 -11 2 -8 5 9 9 -75 53 -87 45 -5 -3 -7 -1 -3 5 3 6
-4 14 -16 17 -13 4 -36 17 -53 29 -47 35 -55 39 -49 23 3 -8 0 -18 -7 -23 -8
-4 -10 -3 -5 4 4 7 1 12 -8 12 -13 0 -15 -35 -16 -244 0 -211 2 -246 15 -260
9 -9 12 -16 7 -16 -6 0 -12 -7 -16 -15 -5 -13 -2 -14 17 -4 21 11 21 10 5 -6
-17 -18 -55 -14 -43 5 3 6 0 7 -9 4 -24 -9 -197 126 -316 246 -198 199 -327
433 -371 670 -17 94 -14 259 10 469 12 101 21 222 21 268 0 57 3 82 11 78 6
-4 8 -13 5 -21z m764 -1214 c0 -5 -2 -10 -4 -10 -3 0 -8 5 -11 10 -3 6 -1 10
4 10 6 0 11 -4 11 -10z m-29 -17 c13 -16 12 -17 -3 -4 -10 7 -18 15 -18 17 0
8 8 3 21 -13z m-378 -576 c126 -123 261 -228 419 -327 58 -36 83 -57 75 -63
-8 -5 -5 -7 8 -6 35 2 46 -1 40 -11 -3 -5 -1 -10 6 -10 7 0 10 -3 7 -6 -4 -3
-15 -1 -27 5 -23 13 -34 2 -20 -19 7 -13 9 -13 9 -1 0 8 3 11 6 8 4 -4 1 -13
-6 -22 -10 -12 -10 -15 4 -15 9 0 16 -8 16 -20 0 -11 -7 -20 -15 -20 -13 0
-15 -24 -15 -160 0 -100 -4 -160 -10 -160 -5 0 -10 -18 -10 -40 0 -22 -4 -40
-10 -40 -5 0 -10 -18 -10 -40 0 -22 -4 -40 -10 -40 -5 0 -10 -9 -10 -19 0 -11
-4 -23 -10 -26 -5 -3 -10 -14 -10 -24 0 -9 -8 -26 -18 -37 -10 -11 -25 -41
-32 -67 -8 -26 -18 -47 -22 -47 -4 0 -8 -9 -8 -20 0 -11 -4 -20 -9 -20 -5 0
-11 -12 -13 -27 -2 -20 -10 -29 -28 -33 -20 -5 -26 -13 -28 -43 -2 -22 -8 -37
-16 -37 -7 0 -19 -18 -26 -40 -11 -35 -17 -40 -43 -40 -27 0 -67 -30 -67 -51
0 -4 -6 -14 -13 -21 -7 -7 -20 -24 -30 -37 -14 -21 -17 -22 -23 -8 -3 9 -11
14 -16 11 -6 -4 -14 0 -19 7 -12 19 -12 -3 0 -33 6 -16 5 -32 -5 -48 -15 -27
-15 -26 -19 45 -1 17 -10 107 -19 200 -13 135 -136 1555 -136 1572 0 2 21 -20
46 -48 25 -29 78 -83 117 -122z m348 46 c13 -17 13 -17 -6 -3 -11 8 -22 16
-24 17 -2 2 0 3 6 3 6 0 17 -8 24 -17z m74 -23 c-3 -5 -12 -10 -18 -10 -7 0
-6 4 3 10 19 12 23 12 15 0z m15898 -871 c106 -61 203 -120 215 -132 50 -46
66 -116 40 -172 -12 -28 -55 -55 -84 -55 -18 0 -366 195 -423 238 -57 42 -77
122 -46 182 8 16 23 34 32 39 40 23 76 10 266 -100z m1647 -405 c168 -96 313
-183 324 -192 44 -39 58 -120 31 -172 -18 -35 -43 -50 -82 -50 -18 1 -144 68
-343 184 -278 161 -318 187 -337 222 -36 62 -24 145 24 173 45 26 77 13 383
-165z m-921 -560 c311 -180 578 -338 594 -352 58 -54 61 -150 6 -196 -35 -30
-58 -32 -100 -10 -77 39 -1126 648 -1143 663 -51 44 -61 142 -20 190 50 59 42
63 663 -295z m2180 -166 c278 -161 462 -274 474 -290 12 -16 22 -49 25 -80 3
-44 0 -58 -18 -81 -29 -37 -62 -49 -97 -36 -54 20 -886 505 -914 532 -38 37
-54 97 -39 142 14 42 53 75 89 75 16 0 201 -101 480 -262z m-2774 -41 c149
-86 489 -282 600 -347 50 -29 110 -64 135 -78 128 -72 309 -178 342 -199 21
-12 40 -23 43 -23 3 0 31 -16 61 -35 30 -19 56 -35 58 -35 2 0 77 -43 166 -95
89 -52 165 -95 169 -95 4 0 26 -17 48 -38 65 -59 72 -160 14 -202 -43 -30 -69
-25 -160 30 -45 28 -84 50 -86 50 -2 0 -55 30 -117 66 -62 37 -131 77 -153 89
-22 13 -182 105 -355 205 -173 100 -335 194 -360 208 -270 153 -596 346 -606
360 -21 26 -36 91 -29 122 4 16 15 41 26 55 34 43 77 35 204 -38z m-62 -508
c106 -61 203 -121 215 -132 50 -46 66 -116 40 -172 -12 -28 -55 -55 -85 -55
-18 0 -365 195 -422 238 -57 42 -77 122 -46 182 18 35 41 49 78 50 17 0 98
-41 220 -111z m5882 -65 c236 -136 257 -150 275 -195 21 -50 -14 -119 -60
-119 -12 0 -125 60 -253 134 -243 141 -267 161 -267 224 0 37 37 82 67 82 10
0 117 -57 238 -126z m-1942 -26 c178 -103 172 -100 417 -240 96 -56 191 -111
210 -123 19 -13 55 -34 80 -48 25 -13 68 -37 95 -54 28 -16 57 -32 65 -36 8
-4 22 -11 30 -17 8 -5 96 -56 195 -113 99 -57 199 -115 222 -130 24 -15 44
-27 47 -27 2 0 70 -39 152 -86 82 -48 164 -95 182 -105 17 -11 47 -27 65 -38
17 -10 70 -40 117 -66 47 -27 92 -55 100 -64 57 -60 53 -183 -7 -210 -44 -20
-46 -20 -265 108 -18 10 -78 44 -133 76 -55 31 -104 60 -110 65 -10 7 -40 24
-150 85 -27 16 -102 58 -165 95 -63 37 -216 126 -340 197 -124 71 -276 160
-339 196 -62 37 -115 67 -116 67 -2 0 -70 39 -152 86 -81 48 -204 119 -273
159 -169 96 -166 94 -189 136 -33 59 -25 133 18 166 38 29 80 15 244 -79z
m-8978 -28 c-4 -6 3 -26 15 -45 20 -33 22 -68 3 -63 -4 1 -19 -4 -31 -11 -18
-9 -23 -19 -20 -36 4 -18 1 -23 -13 -22 -12 1 -15 5 -9 13 6 6 7 13 5 16 -3 3
-1 17 4 31 7 19 16 25 31 22 11 -2 18 0 15 6 -4 5 -14 9 -23 9 -15 0 -15 2 -2
10 11 7 20 4 33 -11 20 -25 22 -20 5 16 -6 14 -17 24 -24 21 -8 -3 -11 1 -8
10 2 7 6 21 9 29 2 8 7 15 10 15 4 0 3 -5 0 -10z m140 -55 c0 -10 -10 -21 -22
-26 -14 -5 -23 -5 -23 1 0 6 6 10 13 11 9 0 9 2 -1 6 -10 4 -10 8 -1 19 15 19
34 13 34 -11z m-70 -29 c0 -15 -4 -21 -9 -16 -5 5 -6 16 -3 24 9 22 12 20 12
-8z m91 -39 c1 -9 -4 -17 -12 -17 -8 0 -14 9 -14 21 0 24 22 21 26 -4z m59 3
c3 -5 2 -10 -4 -10 -5 0 -13 5 -16 10 -3 6 -2 10 4 10 5 0 13 -4 16 -10z
m-185 -20 c0 -5 -7 -7 -15 -4 -8 4 -15 8 -15 10 0 2 7 4 15 4 8 0 15 -4 15
-10z m175 -9 c3 -5 2 -12 -3 -15 -5 -3 -9 1 -9 9 0 17 3 19 12 6z m-41 -47 c9
-24 2 -26 -12 -4 -7 11 -8 20 -3 20 5 0 12 -7 15 -16z m-228 -20 c-2 -14 -11
-33 -21 -42 -13 -12 -15 -13 -9 -2 5 8 9 21 10 28 7 42 24 56 20 16z m20 -15
c-2 -16 -12 -40 -23 -52 -15 -16 -19 -32 -16 -59 2 -21 0 -38 -5 -38 -5 0 -7
11 -4 25 2 15 0 25 -7 25 -6 0 -10 -3 -10 -7 4 -22 -2 -43 -12 -43 -5 0 -7 4
-4 10 5 9 11 27 19 67 1 7 14 22 30 34 16 13 25 27 22 36 -4 8 -4 19 0 24 10
17 14 9 10 -22z m179 21 c3 -5 2 -10 -4 -10 -5 0 -13 5 -16 10 -3 6 -2 10 4
10 5 0 13 -4 16 -10z m5960 -284 c275 -159 508 -295 517 -303 29 -25 51 -98
44 -139 -10 -49 -46 -84 -87 -84 -24 0 -156 71 -513 277 -265 152 -496 287
-514 301 -67 49 -90 127 -57 192 19 37 43 51 80 47 17 -1 244 -126 530 -291z
m-5945 244 c5 9 9 8 13 -2 3 -9 -3 -14 -18 -14 -16 0 -21 4 -17 15 4 11 7 12
10 2 3 -10 6 -10 12 -1z m4597 -16 c26 -15 104 -59 173 -99 69 -40 224 -130
345 -200 479 -277 460 -265 481 -303 28 -52 26 -123 -5 -156 -35 -37 -82 -35
-154 9 -32 19 -60 35 -63 35 -2 0 -23 11 -45 26 -22 14 -55 33 -72 43 -85 48
-575 331 -674 389 -126 74 -143 95 -143 180 0 38 5 55 25 76 31 34 70 34 132
0z m-4621 -41 c-4 -9 -1 -22 5 -29 8 -10 8 -14 0 -14 -12 0 -13 2 -15 42 -1
15 2 24 7 21 4 -3 6 -12 3 -20z m39 17 c-3 -5 -10 -10 -16 -10 -5 0 -9 5 -9
10 0 6 7 10 16 10 8 0 12 -4 9 -10z m11580 -136 c246 -142 265 -158 265 -222
0 -37 -35 -82 -63 -82 -24 0 -446 238 -484 273 -34 30 -48 81 -33 118 14 32
35 48 62 49 10 0 124 -61 253 -136z m-11802 46 c-7 -28 -13 -25 -13 6 0 14 4
23 9 20 5 -3 7 -15 4 -26z m188 -3 c-10 -9 -11 -8 -5 6 3 10 9 15 12 12 3 -3
0 -11 -7 -18z m-9051 -102 c75 -72 100 -242 50 -340 -33 -63 -89 -95 -167 -95
-91 0 -152 35 -184 105 -40 87 -12 208 69 296 76 82 168 95 232 34z m8787 13
c-3 -8 -6 -5 -6 6 -1 11 2 17 5 13 3 -3 4 -12 1 -19z m243 -2 c0 -2 -7 -7 -16
-10 -8 -3 -12 -2 -9 4 6 10 25 14 25 6z m-273 -38 c-3 -8 -6 -5 -6 6 -1 11 2
17 5 13 3 -3 4 -12 1 -19z m27 6 c3 -8 2 -12 -4 -9 -6 3 -10 10 -10 16 0 14 7
11 14 -7z m-9439 -25 c53 -25 119 -94 146 -152 25 -57 25 -151 0 -193 -45 -74
-147 -117 -228 -95 -57 16 -101 55 -129 116 -50 106 -21 289 53 329 40 22 106
20 158 -5z m9422 -19 c-1 -11 -5 -20 -9 -20 -10 0 -10 4 -2 24 8 22 13 20 11
-4z m243 6 c0 -2 -7 -9 -15 -16 -13 -11 -14 -10 -9 4 5 14 24 23 24 12z m-277
-46 c-3 -12 -8 -19 -11 -16 -5 6 5 36 12 36 2 0 2 -9 -1 -20z m242 -10 c10
-11 16 -20 13 -20 -3 0 -13 9 -23 20 -10 11 -16 20 -13 20 3 0 13 -9 23 -20z
m-269 -117 c-2 -25 -8 -37 -20 -39 -13 -2 -14 1 -7 10 6 7 8 16 4 19 -3 4 -1
7 5 7 7 0 11 3 11 8 -2 13 1 32 5 32 2 0 3 -17 2 -37z m4912 -64 c160 -92 183
-115 190 -194 4 -47 1 -56 -24 -83 -49 -53 -64 -51 -214 34 -74 42 -147 88
-163 102 -34 32 -52 88 -43 135 8 41 55 87 89 87 13 0 87 -37 165 -81z
m-13039 7 c115 -60 51 -332 -94 -397 -168 -77 -345 100 -265 265 58 121 247
190 359 132z m20885 -113 c122 -69 229 -133 240 -142 10 -9 25 -31 33 -49 24
-57 -9 -122 -62 -122 -10 0 -121 60 -248 133 -243 139 -267 160 -267 225 0 36
37 82 66 82 10 0 117 -57 238 -127z m-12778 99 c-3 -3 -1 -10 4 -17 7 -8 6
-12 -3 -12 -7 0 -13 11 -13 23 0 12 4 20 9 17 4 -3 6 -8 3 -11z m214 -76 c0
-2 -7 -7 -16 -10 -8 -3 -12 -2 -9 4 6 10 25 14 25 6z m7090 -197 c69 -39 141
-80 160 -91 139 -79 165 -110 158 -193 -10 -119 -70 -127 -233 -30 -60 36
-110 65 -112 65 -1 0 -40 22 -85 50 -104 62 -122 86 -123 163 0 52 3 61 28 83
15 13 40 24 55 24 16 0 82 -31 152 -71z m-1643 -140 c164 -95 309 -181 321
-193 36 -32 52 -70 52 -121 0 -38 -5 -52 -29 -76 -20 -19 -40 -29 -59 -29 -35
0 -606 324 -660 374 -83 78 -55 216 45 216 23 0 114 -47 330 -171z m-14445 59
c138 -51 222 -119 270 -217 19 -39 23 -62 23 -147 0 -95 -2 -104 -37 -175 -47
-95 -112 -160 -207 -207 -73 -36 -77 -37 -190 -37 -135 1 -197 20 -281 86
-186 147 -225 424 -87 611 27 36 82 74 143 99 73 29 271 22 366 -13z m15561
-704 c300 -173 456 -269 470 -288 27 -38 34 -114 14 -153 -19 -37 -66 -58
-100 -47 -14 5 -224 124 -467 264 -492 284 -490 282 -490 378 0 46 4 58 30 84
25 25 37 30 63 25 18 -3 234 -121 480 -263z m-2108 124 c77 -44 155 -92 174
-106 96 -71 73 -232 -34 -232 -29 0 -324 167 -368 208 -60 57 -57 164 6 203
21 12 41 17 57 13 14 -3 88 -42 165 -86z m917 -530 c242 -141 409 -244 421
-260 12 -16 22 -49 25 -81 4 -46 1 -57 -23 -85 -49 -58 -62 -53 -414 150 -490
282 -496 285 -520 328 -12 22 -21 55 -21 80 0 35 6 48 35 77 30 30 40 34 65
29 16 -3 211 -110 432 -238z m-908 -22 c175 -102 308 -185 319 -201 25 -34 33
-106 17 -145 -13 -31 -54 -60 -86 -60 -25 0 -605 336 -631 366 -32 36 -47 97
-33 139 14 42 53 75 89 75 15 -1 151 -73 325 -174z m-759 -111 c83 -49 195
-114 250 -145 465 -266 614 -355 637 -382 52 -60 45 -163 -13 -193 -39 -21
-66 -13 -179 53 -154 89 -399 230 -655 377 -132 76 -252 146 -267 157 -36 25
-62 96 -54 144 4 20 19 48 32 61 39 39 78 27 249 -72z m2931 -597 c351 -203
513 -302 530 -323 34 -45 41 -111 15 -153 -28 -43 -63 -59 -101 -45 -37 14
-964 548 -1008 580 -67 50 -84 145 -36 202 49 58 46 59 600 -261z m-17351 53
c36 -35 64 -65 63 -67 -4 -3 -269 -158 -348 -202 -25 -14 -115 -66 -200 -115
-85 -50 -198 -115 -250 -145 -52 -29 -99 -57 -105 -62 -5 -4 -31 -19 -57 -34
-118 -65 -149 -82 -238 -134 -52 -30 -147 -85 -210 -122 -123 -72 -136 -80
-309 -180 -92 -52 -117 -72 -137 -106 -30 -51 -39 -98 -29 -159 11 -80 81
-135 360 -286 33 -18 83 -47 110 -64 28 -18 75 -45 105 -62 30 -17 71 -39 90
-51 19 -11 85 -49 145 -83 61 -34 121 -70 135 -79 14 -9 50 -31 80 -47 30 -17
82 -46 115 -65 487 -282 864 -500 1055 -610 129 -75 366 -211 525 -304 326
-189 422 -234 581 -274 296 -76 619 -51 889 67 50 22 587 327 1195 678 608
352 1113 639 1122 639 9 0 15 2 13 5 -13 12 190 125 206 115 7 -4 9 -3 5 4 -7
12 172 118 193 114 7 -2 10 1 7 6 -5 8 27 29 48 30 5 0 12 4 15 9 3 5 22 19
42 31 28 17 38 19 48 9 7 -6 12 -7 11 -2 -4 21 1 33 16 39 8 3 13 2 10 -2 -3
-5 1 -9 8 -9 8 0 12 6 9 14 -3 7 2 13 11 13 9 0 16 5 16 11 0 6 6 9 13 6 8 -3
29 12 48 34 18 21 38 39 43 39 5 0 -1 -12 -15 -27 -17 -20 -18 -23 -3 -10 11
9 23 15 25 12 3 -2 5 6 5 20 0 14 -4 21 -10 17 -6 -3 -2 7 8 23 27 41 24 120
-6 177 -25 49 -28 70 -10 76 6 2 12 -1 12 -8 0 -6 -4 -9 -8 -6 -5 3 -9 -1 -9
-9 0 -12 3 -12 15 -2 13 10 14 8 9 -18 -3 -16 -4 -24 -1 -17 3 6 9 10 13 8 4
-3 7 4 7 15 0 10 -4 19 -8 19 -4 0 -8 5 -8 11 0 5 6 7 13 3 9 -5 9 -4 0 6 -12
13 -56 23 -49 11 2 -3 -2 -11 -9 -18 -10 -9 -17 -7 -31 10 -19 21 -19 21 1 7
18 -14 19 -14 6 2 -7 10 -17 16 -21 13 -13 -8 -90 37 -83 48 3 6 1 7 -5 3 -16
-9 -74 22 -69 37 3 7 9 11 14 10 5 -1 10 5 10 12 0 10 -4 12 -12 5 -7 -5 -15
-6 -19 -2 -4 4 -7 3 -6 -3 5 -23 -2 -25 -30 -10 -18 9 -28 21 -24 27 4 7 3 8
-4 4 -6 -4 -42 11 -79 34 -37 22 -71 40 -76 40 -5 0 -6 8 -2 18 5 13 4 14 -6
5 -10 -10 -18 -8 -37 10 -13 12 -27 21 -30 20 -4 0 -6 3 -5 8 2 4 -5 5 -14 2
-9 -4 -14 -2 -10 3 3 6 -2 10 -12 11 -25 2 -82 38 -74 47 4 4 0 4 -10 0 -10
-3 -17 -1 -17 5 0 6 -6 11 -12 11 -19 1 -178 96 -173 103 3 4 2 5 -1 2 -11 -7
-81 33 -88 50 -3 9 -10 13 -16 10 -6 -4 -34 8 -63 26 -28 18 -72 43 -97 57
-39 22 -359 206 -563 324 l-67 39 57 44 c32 23 66 52 76 63 18 20 18 20 64 -7
58 -33 125 -72 246 -141 52 -30 93 -58 90 -64 -3 -5 -1 -6 5 -2 10 6 110 -48
123 -67 3 -5 8 -8 10 -7 11 5 57 -24 52 -33 -3 -6 -1 -7 5 -3 11 7 76 -27 67
-36 -3 -2 1 -5 9 -5 12 0 206 -108 291 -162 22 -14 72 -42 110 -62 41 -21 70
-43 70 -52 0 -9 4 -19 8 -24 5 -4 7 -3 5 2 -6 20 14 17 63 -10 38 -20 49 -31
44 -43 -5 -13 -3 -14 6 -5 9 9 15 8 28 -6 9 -9 12 -10 6 -2 -5 8 13 2 40 -14
66 -37 76 -46 69 -56 -3 -5 3 -6 12 -2 13 5 15 3 9 -7 -5 -8 -4 -11 3 -6 13 8
83 -24 76 -36 -3 -4 -7 -17 -9 -29 -3 -17 -2 -19 10 -9 8 7 12 16 9 21 -8 13
20 11 34 -3 9 -9 9 -15 -1 -26 -10 -13 -9 -14 10 -1 20 12 26 11 52 -9 17 -12
34 -22 39 -22 5 0 15 -6 21 -14 10 -12 7 -18 -16 -30 -15 -8 -23 -15 -18 -16
6 0 23 7 39 15 24 13 27 13 23 0 -4 -9 -1 -12 8 -9 12 5 64 -59 78 -98 7 -19
-12 -21 -25 -3 -5 6 -8 6 -8 -2 0 -6 5 -15 10 -18 6 -3 10 -14 10 -23 0 -13
-2 -13 -14 4 -15 19 -15 19 -13 -2 1 -15 7 -20 24 -19 12 0 26 5 30 9 4 5 2 6
-4 2 -7 -4 -13 -3 -13 3 0 12 20 26 21 14 0 -4 3 -17 6 -28 3 -11 5 -36 5 -55
-1 -25 2 -30 8 -20 7 10 10 -1 10 -37 0 -29 -4 -53 -10 -53 -5 0 -9 -8 -8 -17
3 -45 -2 -74 -14 -67 -8 5 -9 2 -5 -10 8 -20 -28 -60 -45 -50 -7 4 -8 3 -4 -5
4 -6 11 -9 16 -6 6 3 2 -8 -8 -25 -9 -16 -22 -28 -29 -26 -6 3 -17 -3 -25 -12
-12 -15 -11 -16 5 -3 30 23 19 2 -15 -29 -37 -33 -50 -38 -42 -15 4 8 11 12
17 8 6 -4 7 -1 2 7 -6 9 -4 11 5 5 9 -6 11 -4 5 5 -5 9 -4 11 3 6 7 -4 10 -2
6 7 -5 15 18 40 32 35 5 -2 9 2 9 7 0 6 -6 9 -13 7 -9 -2 -11 1 -6 9 4 8 3 10
-4 5 -7 -4 -12 -13 -12 -21 0 -8 -5 -17 -10 -20 -7 -4 -9 3 -6 19 3 18 1 24
-6 20 -8 -5 -9 -1 -5 10 6 14 3 17 -9 12 -13 -5 -15 -1 -12 19 4 20 3 23 -8
14 -8 -6 -14 -8 -14 -3 0 12 -24 -14 -26 -29 -1 -8 7 -13 20 -12 33 3 58 -23
45 -47 -8 -15 -8 -19 0 -14 14 9 14 -7 0 -21 -6 -6 -19 -9 -28 -6 -11 3 -12 2
-4 -4 17 -12 10 -43 -13 -56 -18 -10 -18 -9 -4 9 8 10 10 16 6 12 -5 -4 -16
-2 -25 4 -13 10 -14 10 -4 -1 12 -15 7 -41 -9 -41 -5 0 -34 -16 -64 -36 -30
-20 -59 -32 -65 -28 -7 4 -9 3 -6 -3 9 -14 -189 -127 -205 -117 -6 4 -8 3 -4
-4 8 -13 -189 -127 -204 -117 -6 4 -9 1 -8 -5 2 -6 -19 -23 -47 -38 -27 -15
-72 -42 -100 -60 -27 -17 -56 -30 -63 -27 -7 3 -11 1 -8 -4 6 -8 -9 -18 -28
-19 -5 0 -12 -5 -15 -10 -12 -20 -202 -123 -214 -116 -6 4 -9 4 -5 -1 11 -11
-29 -38 -44 -29 -6 4 -8 3 -5 -3 4 -6 -21 -25 -56 -44 -34 -19 -70 -38 -79
-44 -591 -346 -1643 -948 -1711 -980 -114 -53 -220 -89 -351 -117 -86 -19
-132 -22 -306 -22 -221 0 -310 13 -486 69 -78 26 -272 116 -369 173 -91 53
-1008 584 -1110 642 -265 152 -450 258 -555 320 -63 37 -136 79 -161 92 -77
43 -93 53 -109 64 -8 6 -51 31 -94 54 -44 24 -119 67 -167 96 -49 30 -91 54
-93 54 -3 0 -49 26 -103 59 -94 56 -130 77 -343 198 -159 91 -233 192 -247
337 -14 156 67 310 202 385 28 15 127 72 220 126 94 54 213 123 265 153 52 30
109 63 127 73 17 10 50 29 72 43 22 15 43 26 46 26 2 0 39 21 82 46 88 53 129
76 193 112 47 26 304 175 570 330 85 50 158 90 162 89 3 -1 36 -31 73 -66z
m18473 -702 c206 -119 237 -140 257 -179 24 -47 19 -113 -11 -149 -44 -53 -70
-46 -287 80 -106 61 -200 118 -209 126 -10 9 -25 35 -34 60 -14 36 -15 50 -5
83 13 44 52 80 88 80 13 0 104 -46 201 -101z m-10508 -443 c0 -2 -8 -10 -17
-17 -16 -13 -17 -12 -4 4 13 16 21 21 21 13z m-50 -35 c0 -5 -7 -12 -16 -15
-14 -5 -15 -4 -4 9 14 17 20 19 20 6z m-164 -100 c-4 -5 0 -12 6 -15 7 -3 2
-3 -11 0 -15 4 -21 2 -17 -4 3 -6 1 -14 -6 -19 -17 -10 -58 -12 -58 -3 0 13
29 20 35 9 4 -5 11 -7 16 -3 5 3 7 9 4 14 -3 5 3 13 12 19 23 13 26 13 19 2z
m-117 -70 c10 -7 11 -13 2 -27 -9 -16 -13 -11 -10 12 0 4 -5 11 -13 15 -7 5
-8 9 -3 9 6 0 16 -4 24 -9z m-19 -36 c0 -2 -7 -2 -15 1 -8 4 -22 0 -31 -7 -18
-15 -56 -20 -48 -7 4 5 12 7 20 4 8 -3 14 1 14 8 0 8 6 16 13 19 12 4 47 -9
47 -18z m-135 -74 c-1 -26 -26 -36 -50 -20 -5 4 -23 -4 -40 -17 -24 -19 -26
-24 -12 -24 10 0 15 -5 12 -11 -4 -6 -13 -8 -19 -6 -7 3 -19 1 -27 -4 -10 -6
-8 -9 11 -9 16 0 21 -3 14 -10 -6 -6 -21 -6 -42 0 -18 5 -40 6 -48 3 -8 -3
-14 0 -14 7 0 6 5 8 10 5 6 -3 10 -1 10 5 0 7 7 7 23 -1 20 -11 21 -11 8 4 -7
10 -10 17 -5 17 5 0 25 10 44 22 19 12 39 22 43 23 4 0 11 5 15 11 9 14 40 31
56 31 7 0 12 -11 11 -26z m-2015 -11 c0 -5 -7 -7 -15 -4 -8 4 -12 10 -9 15 6
11 24 2 24 -11z m2000 -82 c0 -29 -4 -48 -9 -42 -8 8 -3 94 5 94 2 0 4 -23 4
-52z m-50 -3 c0 -8 -2 -15 -4 -15 -2 0 -6 7 -10 15 -3 8 -1 15 4 15 6 0 10 -7
10 -15z m-121 -31 c5 4 12 2 15 -3 4 -5 -3 -12 -14 -16 -21 -7 -28 -27 -8 -22
9 1 13 -25 16 -90 4 -89 3 -93 -17 -93 -20 0 -21 -6 -21 -80 0 -47 -4 -80 -10
-80 -6 0 -10 -60 -10 -160 0 -100 -4 -160 -10 -160 -6 0 -10 -33 -10 -80 l0
-80 -30 0 -30 0 0 -80 c0 -78 -1 -80 -24 -80 -23 0 -24 -4 -31 -80 -4 -44 -11
-80 -16 -80 -5 0 -9 -36 -9 -80 l0 -80 -40 0 -40 0 0 -80 0 -80 -30 0 -30 0 0
-80 c0 -73 -2 -80 -20 -80 -18 0 -20 -7 -20 -80 l0 -80 -30 0 -30 0 0 -80 c0
-50 4 -80 11 -80 5 0 7 -5 3 -12 -6 -9 -9 -9 -12 0 -2 7 -21 12 -43 12 l-39 0
0 -80 0 -80 -40 0 -40 0 0 -80 0 -80 -50 0 -49 0 -3 -77 -3 -78 -30 -2 c-16 0
-42 -2 -57 -2 l-28 -1 0 -80 0 -80 -44 0 c-25 0 -48 -5 -51 -10 -11 -18 -6
-143 6 -150 8 -6 8 -9 0 -14 -6 -4 -10 -17 -10 -29 1 -16 3 -17 6 -5 2 9 11
19 19 22 11 4 10 -2 -5 -23 -22 -30 -19 -43 7 -35 10 3 0 -4 -22 -15 -21 -11
-44 -25 -52 -32 -8 -6 -14 -8 -14 -3 -1 22 -20 -24 -20 -47 0 -32 27 -57 108
-99 34 -18 62 -37 62 -42 0 -5 -13 0 -29 11 -30 21 -46 27 -38 14 3 -5 -14 -9
-36 -10 -30 -1 -35 1 -17 5 36 10 38 35 3 29 -15 -2 -22 -2 -15 0 18 6 4 23
-18 23 -14 0 -18 5 -13 17 4 10 2 14 -4 10 -6 -4 -14 -1 -16 5 -4 8 -6 7 -6
-4 -1 -12 -9 -16 -31 -16 -34 1 -43 28 -9 28 11 0 17 -4 14 -10 -3 -5 -2 -10
4 -10 14 0 33 74 24 95 -6 17 -7 17 -21 -1 -13 -18 -14 -18 -7 5 5 15 2 27 -6
33 -11 7 -11 11 -1 15 12 5 18 43 6 43 -22 0 -45 -54 -25 -62 4 -1 10 -24 13
-50 5 -43 3 -48 -14 -48 -17 0 -19 5 -13 40 6 36 5 40 -14 40 -14 0 -21 -6
-21 -20 0 -13 -7 -20 -20 -20 -18 0 -20 -7 -20 -80 l0 -80 -50 0 c-39 0 -50
-4 -50 -16 0 -20 -24 -44 -44 -44 -9 0 -16 -8 -16 -20 0 -12 -7 -20 -16 -20
-8 0 -22 -6 -30 -14 -16 -17 -19 -46 -4 -46 6 0 10 -9 10 -20 0 -13 -7 -20
-20 -20 -13 0 -20 7 -20 20 0 11 -4 20 -10 20 -5 0 -10 -7 -10 -16 0 -20 -24
-44 -44 -44 -9 0 -16 -8 -16 -20 0 -12 -7 -20 -16 -20 -8 0 -22 -6 -30 -14
-16 -17 -19 -46 -4 -46 6 0 10 -9 10 -20 0 -13 -7 -20 -20 -20 -13 0 -20 7
-20 20 0 11 -4 20 -10 20 -5 0 -10 -7 -10 -16 0 -20 -24 -44 -44 -44 -9 0 -16
-8 -16 -20 0 -12 -7 -20 -16 -20 -20 0 -44 -24 -44 -44 0 -12 -10 -16 -40 -16
-29 0 -40 -4 -40 -15 0 -20 -65 -85 -85 -85 -8 0 -15 -4 -15 -10 0 -5 -9 -10
-20 -10 -13 0 -20 -7 -20 -20 0 -11 -4 -20 -10 -20 -5 0 -10 -7 -10 -15 0 -20
-65 -85 -84 -85 -8 0 -17 6 -20 13 -5 10 -7 10 -12 0 -3 -7 -14 -13 -25 -13
-12 0 -19 -7 -19 -19 0 -11 -6 -22 -12 -24 -10 -4 -10 -8 1 -15 9 -7 10 -12 2
-16 -6 -4 -11 -2 -11 3 0 6 -16 11 -36 11 -27 0 -43 -7 -64 -30 -15 -16 -35
-30 -44 -30 -9 0 -16 -8 -16 -20 0 -12 -7 -20 -16 -20 -22 0 -44 -25 -44 -49
0 -11 -4 -23 -10 -26 -5 -3 -10 -1 -10 4 0 16 -69 13 -86 -3 -8 -8 -14 -22
-14 -30 0 -9 -8 -16 -19 -16 -11 0 -22 -6 -25 -12 -5 -10 -7 -10 -12 0 -3 6
-12 12 -20 12 -19 0 -84 -65 -84 -85 0 -10 -10 -15 -30 -15 -27 0 -30 -3 -30
-30 l0 -30 -80 0 c-73 0 -80 -2 -80 -20 0 -18 -7 -20 -80 -20 l-80 0 0 -30 c0
-23 4 -30 20 -30 13 0 20 -7 20 -20 0 -13 -7 -20 -20 -20 -13 0 -20 7 -20 20
0 18 -7 20 -80 20 l-80 0 0 -40 0 -40 -80 0 -80 0 0 -30 0 -30 -80 0 c-47 0
-80 -4 -80 -10 0 -5 -18 -10 -40 -10 -22 0 -40 -4 -40 -10 0 -5 -18 -10 -40
-10 -38 0 -40 -1 -40 -31 l0 -31 -80 7 c-70 6 -80 5 -80 -9 0 -13 -13 -16 -80
-16 l-80 0 0 -30 0 -30 -160 0 -160 0 0 -30 0 -30 -160 0 c-100 0 -160 -4
-160 -10 0 -7 -167 -10 -480 -10 -313 0 -480 3 -480 10 0 6 -33 10 -80 10
l-80 0 0 30 0 30 -160 0 -160 0 0 30 0 30 -80 0 c-47 0 -80 4 -80 10 0 6 -33
10 -80 10 l-80 0 0 30 c0 28 -2 30 -40 30 -22 0 -40 5 -40 10 0 6 -47 10 -120
10 l-120 0 0 40 0 40 -79 0 -80 0 -3 38 -3 37 -77 3 c-75 3 -77 3 -80 30 -3
26 -5 27 -80 30 -70 3 -78 5 -78 22 0 18 -7 20 -74 20 -66 0 -74 -2 -79 -21
-5 -18 -8 -19 -20 -8 -8 8 -13 17 -10 22 2 4 -1 7 -8 7 -7 0 -10 3 -6 6 3 4
-1 13 -9 21 -16 17 -49 9 -38 -8 4 -7 3 -10 -2 -6 -5 3 -18 -1 -29 -9 -10 -8
-15 -14 -11 -14 5 0 3 -7 -4 -15 -7 -9 -9 -19 -5 -23 4 -4 10 -1 12 6 3 6 9
12 15 12 6 0 3 -9 -6 -19 -14 -16 -21 -17 -31 -8 -11 10 -10 15 2 30 9 9 12
17 7 17 -5 0 14 21 42 48 56 51 134 100 134 83 0 -6 5 -11 10 -11 6 0 9 3 9 8
-3 19 2 32 12 32 8 0 9 -4 0 -13 -6 -8 -8 -17 -5 -20 13 -13 -7 -27 -26 -17
-13 7 -21 7 -25 0 -4 -6 -11 -7 -17 -4 -7 5 -8 2 -4 -5 11 -17 -26 -44 -37
-28 -6 8 -7 7 -4 -3 2 -8 10 -14 16 -12 6 1 11 -2 11 -8 0 -5 7 -10 15 -10 8
0 15 8 15 18 0 19 18 42 33 42 5 0 4 -6 -2 -13 -6 -8 -8 -17 -4 -20 10 -11 43
-8 43 3 0 5 -7 7 -15 4 -11 -5 -13 -2 -9 10 3 9 10 14 14 11 4 -2 7 6 8 18 0
39 14 68 29 63 8 -3 12 -2 9 2 -2 4 25 24 60 44 36 21 62 32 58 25 -4 -7 6 0
22 14 16 15 49 37 74 49 25 12 52 28 60 35 8 7 40 26 70 42 30 17 72 40 92 52
21 13 42 20 48 16 6 -4 9 -1 8 5 -2 6 24 25 57 43 33 18 62 34 65 38 18 19
362 209 370 204 6 -4 9 -2 8 3 -2 6 1 10 6 10 5 0 12 4 15 10 8 12 546 322
559 322 6 0 12 4 14 8 4 12 4730 2738 4740 2735 4 -2 8 1 8 5 0 11 80 56 80
45 0 -4 4 -2 8 5 14 21 283 173 295 165 5 -3 7 -2 4 3 -3 6 16 22 43 37 35 20
51 24 56 16 5 -8 3 -9 -7 -4 -12 8 -12 6 0 -8 7 -9 19 -17 25 -17 7 0 7 3 1 8
-11 8 -14 37 -3 37 3 0 14 8 24 17 11 9 46 32 79 50 33 19 73 43 90 54 16 10
26 14 22 7 -4 -6 -2 -15 4 -19 8 -5 9 -3 4 5 -9 15 42 12 65 -4 13 -9 13 -8 1
8 -16 21 -4 23 19 2 15 -13 16 -12 16 15 0 34 -11 38 -38 13 -14 -13 -18 -13
-18 -2 0 12 -2 12 -9 0 -5 -7 -15 -11 -22 -9 -9 3 -3 11 17 21 17 9 34 14 36
12 3 -3 13 4 24 16 l19 21 17 -22 c10 -12 22 -19 27 -16z m37 16 c8 0 14 -9
14 -19 0 -11 6 -22 13 -25 10 -5 10 -7 0 -12 -18 -8 -16 -24 2 -24 12 0 15
-16 15 -80 0 -73 -2 -80 -20 -80 -17 0 -20 -7 -20 -40 0 -22 5 -40 10 -40 6 0
10 -18 10 -40 0 -22 -4 -40 -9 -40 -5 0 -14 60 -20 133 -7 72 -13 144 -15 160
-2 17 2 27 11 27 7 0 13 7 13 16 0 9 -5 12 -12 8 -10 -6 -10 -5 -1 8 11 12 10
18 -5 32 -10 9 -22 13 -25 9 -4 -3 -7 -1 -7 6 0 8 6 11 16 7 9 -3 22 -6 30 -6z
m-96 -50 c0 -5 -2 -10 -4 -10 -3 0 -8 5 -11 10 -3 6 -1 10 4 10 6 0 11 -4 11
-10z m232 -105 c-3 -76 -5 -85 -23 -85 -17 0 -19 8 -19 79 0 81 0 80 40 90 3
1 4 -37 2 -84z m-291 -998 c-4 -61 -11 -59 -11 3 0 29 3 50 7 46 4 -4 6 -26 4
-49z m-114 -429 c-2 -13 -4 -3 -4 22 0 25 2 35 4 23 2 -13 2 -33 0 -45z m-125
-230 c2 -21 0 -38 -4 -38 -4 0 -8 21 -7 48 1 52 6 48 11 -10z m578 -388 c8 -5
11 -10 5 -10 -5 0 -17 5 -25 10 -8 5 -10 10 -5 10 6 0 17 -5 25 -10z m-150
-124 c0 -2 -7 -7 -16 -10 -8 -3 -12 -2 -9 4 6 10 25 14 25 6z m-86 -24 c3 -5
-1 -9 -9 -9 -8 0 -12 4 -9 9 3 4 7 8 9 8 2 0 6 -4 9 -8z m-114 -87 c0 -2 -6
-8 -13 -14 -10 -8 -14 -7 -14 2 0 8 6 14 14 14 7 0 13 -1 13 -2z m-53 -70 c0
-8 -4 -12 -9 -9 -5 3 -6 10 -3 15 9 13 12 11 12 -6z m-167 -69 c0 -2 -7 -7
-16 -10 -8 -3 -12 -2 -9 4 6 10 25 14 25 6z m-55 -26 c-3 -5 -12 -10 -18 -10
-7 0 -6 4 3 10 19 12 23 12 15 0z m232 -14 c0 -8 -6 -12 -15 -9 -11 5 -11 7 0
14 7 5 13 9 14 9 0 0 1 -6 1 -14z m-306 -29 c-10 -9 -11 -8 -5 6 3 10 9 15 12
12 3 -3 0 -11 -7 -18z m-26 4 c3 -5 2 -12 -3 -15 -5 -3 -9 1 -9 9 0 17 3 19
12 6z m-71 -13 c-3 -4 -12 -8 -20 -8 -8 0 -14 4 -14 8 0 4 9 8 19 8 11 0 17
-4 15 -8z m8 -25 c-6 -3 -10 -9 -7 -14 4 -5 -2 -6 -11 -2 -13 5 -15 3 -9 -8 5
-8 4 -11 0 -6 -18 16 -11 32 14 33 14 1 20 -1 13 -3z m-177 -13 c3 -6 -1 -7
-9 -4 -18 7 -21 14 -7 14 6 0 13 -4 16 -10z m92 -52 c-12 -9 -26 -13 -31 -8
-14 14 2 28 29 26 l25 -1 -23 -17z m684 5 c13 -16 12 -17 -3 -4 -17 13 -22 21
-14 21 2 0 10 -8 17 -17z m-735 -26 c8 3 14 2 14 -1 0 -9 -81 -48 -88 -41 -3
3 4 8 16 12 12 3 19 9 16 14 -3 5 2 6 11 3 10 -4 14 -1 12 7 -2 8 -2 11 0 7 2
-4 11 -4 19 -1z m-101 -41 c18 -13 17 -14 -10 -32 -15 -10 -33 -19 -39 -20 -6
-1 -20 -5 -31 -10 -14 -5 -17 -4 -10 4 6 6 20 13 31 15 12 1 32 10 45 20 l24
16 -24 -2 c-13 -1 -26 4 -28 11 -6 16 18 15 42 -2z m-288 -298 c-3 -7 -5 -2
-5 12 0 14 2 19 5 13 2 -7 2 -19 0 -25z m301 -50 c-3 -7 5 -20 16 -29 20 -16
20 -16 -4 -15 -24 1 -26 6 -21 46 0 6 4 10 7 10 3 0 4 -6 2 -12z m-438 -49 c0
-5 -4 -9 -10 -9 -5 0 -10 7 -10 16 0 8 5 12 10 9 6 -3 10 -10 10 -16z m555 -8
c3 -5 2 -12 -3 -15 -5 -3 -9 1 -9 9 0 17 3 19 12 6z m34 -34 c0 -9 -2 -8 -6 1
-2 6 -10 9 -15 6 -7 -4 -8 -2 -4 5 9 13 26 5 25 -12z m605 -5 c3 -5 -1 -9 -9
-9 -8 0 -12 4 -9 9 3 4 7 8 9 8 2 0 6 -4 9 -8z m-1754 -436 c0 -3 -4 -8 -10
-11 -5 -3 -10 -1 -10 4 0 6 5 11 10 11 6 0 10 -2 10 -4z m-37 -83 c-13 -2 -33
-2 -45 0 -13 2 -3 4 22 4 25 0 35 -2 23 -4z m-576 -399 c-3 -3 -12 -4 -19 -1
-8 3 -5 6 6 6 11 1 17 -2 13 -5z m10 -70 c-3 -3 -12 -4 -19 -1 -8 3 -5 6 6 6
11 1 17 -2 13 -5z m-4977 -135 c0 -5 6 -9 14 -9 8 0 17 -4 20 -9 8 -12 -18 -8
-35 5 -24 19 -46 23 -58 11 -8 -8 -11 -8 -11 0 0 7 5 15 10 18 6 3 10 15 10
26 0 13 -4 18 -12 13 -7 -4 -8 -3 -4 5 5 8 17 2 37 -20 16 -17 29 -35 29 -40z
m-114 -1 c4 -7 3 -8 -4 -4 -8 5 -12 0 -12 -13 0 -11 5 -23 10 -26 6 -4 8 -11
5 -16 -4 -5 1 -12 9 -15 9 -3 14 -9 13 -13 -2 -3 4 -14 14 -23 17 -16 18 -16
16 2 -1 10 -4 17 -8 14 -4 -2 -10 5 -14 16 -4 11 -11 17 -17 14 -7 -5 -8 -2
-4 5 6 9 13 8 28 -6 15 -13 19 -14 16 -3 -2 8 -11 21 -20 28 -20 15 -24 32 -7
32 5 0 8 -4 4 -9 -3 -5 -1 -12 5 -16 5 -3 10 -1 10 6 0 8 4 8 15 -1 11 -9 12
-16 5 -25 -7 -8 -7 -16 -2 -19 5 -3 7 -17 4 -31 -3 -17 0 -25 9 -25 11 0 11
-2 -1 -10 -13 -9 -13 -10 0 -11 8 -1 21 -1 29 0 7 2 10 -3 6 -9 -3 -6 -3 -10
2 -8 4 1 32 -14 62 -33 30 -19 58 -33 63 -31 4 1 8 -2 8 -7 0 -18 71 -51 98
-46 23 4 24 4 7 -4 -19 -9 -19 -10 3 -10 15 -1 21 -5 16 -13 -4 -6 -3 -8 4 -4
6 3 13 2 17 -3 3 -6 12 -8 20 -4 11 4 13 1 8 -13 -5 -14 -3 -16 11 -11 11 4
15 3 11 -4 -6 -9 17 -21 42 -21 4 -1 14 -9 21 -19 7 -10 19 -16 27 -13 8 4 15
1 15 -5 0 -6 6 -11 14 -11 8 0 16 -7 20 -15 3 -8 15 -15 26 -15 12 0 18 -4 15
-10 -9 -14 8 -12 24 3 11 10 12 9 6 -2 -6 -10 -2 -11 16 -6 13 4 21 4 18 1 -4
-4 11 -25 32 -47 33 -33 43 -38 54 -29 8 7 12 17 9 22 -4 6 3 5 15 -1 25 -14
27 -19 5 -17 -9 0 -19 -5 -22 -13 -3 -11 2 -12 24 -7 18 4 24 3 16 -2 -10 -7
-9 -12 4 -23 16 -12 17 -12 9 1 -6 12 -5 13 6 3 19 -18 29 -16 23 5 -5 13 -4
14 4 3 6 -8 8 -20 5 -28 -3 -8 2 -13 16 -13 12 0 21 -4 21 -10 0 -5 10 -14 23
-20 21 -11 21 -10 3 4 -11 9 -15 16 -10 16 6 0 21 -11 34 -25 13 -14 30 -23
36 -21 7 3 15 -2 18 -11 4 -8 13 -13 21 -10 10 4 12 1 8 -11 -3 -9 -3 -14 2
-10 4 4 14 3 21 -3 8 -6 20 -9 29 -5 8 3 14 0 12 -6 -1 -6 11 -18 28 -27 16
-9 35 -23 42 -31 10 -13 12 -11 8 9 -2 13 -1 20 3 17 4 -4 8 -12 8 -17 1 -5 2
-13 3 -19 0 -5 11 -14 22 -21 13 -7 19 -7 15 -1 -3 6 -1 14 5 18 7 4 9 3 6 -3
-4 -6 2 -18 13 -28 11 -10 20 -15 20 -12 0 4 8 -1 19 -12 10 -10 37 -27 60
-37 22 -10 41 -22 41 -27 0 -4 5 -5 10 -2 6 3 10 1 10 -5 0 -6 5 -8 10 -5 6 3
10 3 10 -2 0 -13 58 -35 71 -27 7 4 9 3 6 -3 -8 -13 13 -32 41 -36 12 -2 25
-7 29 -12 5 -4 1 -5 -7 0 -12 6 -13 5 -3 -5 7 -7 21 -14 32 -15 11 -1 31 -13
45 -28 15 -16 32 -25 45 -22 12 2 20 -1 18 -7 -1 -7 18 -22 43 -34 51 -26 64
-29 54 -12 -4 7 -3 8 5 4 6 -4 9 -12 5 -17 -8 -13 27 -40 44 -34 6 2 12 0 12
-4 0 -14 89 -63 100 -56 6 4 9 1 8 -7 -2 -8 6 -13 19 -12 12 0 20 -3 17 -7 -2
-5 5 -13 17 -19 13 -7 19 -8 15 -2 -3 6 -2 14 4 17 6 4 10 3 9 -2 -4 -23 5
-35 42 -55 55 -30 108 -60 139 -78 14 -8 28 -13 33 -12 4 1 7 -2 7 -6 0 -14
60 -43 73 -36 6 4 9 3 4 -1 -7 -9 69 -65 89 -65 6 0 23 -9 38 -21 14 -11 26
-17 26 -12 0 4 4 3 8 -3 4 -7 23 -21 42 -32 19 -10 79 -45 132 -76 53 -31 102
-56 107 -56 6 0 11 -5 11 -11 0 -6 7 -8 16 -5 8 3 12 2 9 -4 -3 -5 6 -12 20
-16 14 -3 25 -11 25 -16 0 -6 7 -7 16 -4 8 3 13 2 10 -3 -3 -4 14 -18 37 -31
23 -13 106 -61 185 -107 78 -46 145 -83 149 -83 3 0 29 -16 58 -35 29 -18 65
-40 81 -47 16 -7 31 -15 34 -19 3 -3 100 -60 215 -126 216 -124 3087 -1781
3710 -2142 193 -112 366 -212 385 -223 137 -79 426 -246 448 -259 15 -9 86
-50 157 -91 72 -41 175 -101 230 -133 55 -32 186 -108 290 -168 105 -60 215
-124 245 -142 30 -18 75 -44 100 -58 25 -13 1235 -712 2690 -1553 2106 -1217
2662 -1534 2730 -1557 162 -56 400 -47 588 22 54 19 1504 851 4743 2721 2565
1481 4689 2711 4719 2734 34 26 68 64 90 100 32 54 35 57 41 35 9 -36 1 -89
-22 -136 -44 -90 -98 -126 -900 -588 -420 -242 -773 -445 -784 -451 -11 -6
-1296 -748 -2855 -1649 -1559 -900 -2853 -1647 -2875 -1660 -22 -12 -488 -281
-1035 -597 -547 -317 -1018 -587 -1047 -601 -106 -54 -216 -79 -373 -84 -161
-6 -251 8 -345 51 -29 13 -756 430 -1616 926 -860 497 -1618 934 -1684 971
-66 38 -127 74 -135 79 -8 5 -32 19 -52 30 -20 11 -108 61 -195 111 -87 50
-178 103 -203 117 -25 14 -139 80 -255 147 -335 194 -533 308 -578 334 -23 13
-580 334 -1237 714 -657 379 -1201 692 -1210 695 -8 3 -17 8 -20 12 -16 19
-673 389 -682 384 -6 -4 -8 -3 -5 3 4 6 -13 21 -38 34 -24 13 -116 66 -203
117 -88 50 -163 92 -167 92 -3 0 -22 12 -40 26 -20 15 -39 23 -46 18 -7 -4 -9
-3 -6 2 3 6 -36 32 -86 59 -51 27 -94 52 -97 55 -3 4 -30 20 -60 36 -30 16
-57 33 -58 37 -2 4 -11 2 -20 -5 -10 -8 -13 -9 -9 -1 4 7 -5 20 -23 33 -16 12
-30 19 -30 15 0 -3 -10 3 -22 15 -20 19 -33 24 -50 21 -5 0 -8 4 -8 10 0 5 -5
7 -10 4 -6 -3 -13 1 -16 9 -3 9 -10 13 -15 10 -5 -3 -9 0 -9 7 0 6 -8 9 -20 6
-10 -3 -18 0 -17 5 1 5 -27 26 -63 45 -36 19 -71 39 -77 45 -7 6 -19 8 -28 4
-8 -3 -14 0 -12 7 1 7 -6 12 -15 12 -9 0 -20 4 -25 9 -4 5 -3 6 5 2 23 -14 12
2 -14 19 -15 9 -24 13 -21 8 3 -5 -3 -9 -13 -9 -14 0 -16 3 -8 13 8 11 7 12
-7 7 -11 -5 -16 -4 -12 3 3 5 -12 19 -33 31 -42 22 -53 19 -22 -5 13 -11 13
-13 2 -10 -8 2 -19 13 -24 24 -13 27 -92 67 -102 51 -4 -6 -3 -8 2 -5 6 3 16
1 24 -5 12 -8 12 -9 -2 -4 -10 3 -22 -2 -28 -12 -8 -13 -9 -10 -5 15 6 35 -1
42 -39 45 -18 2 -22 6 -15 14 6 8 4 14 -6 18 -9 3 -13 2 -10 -4 10 -17 -11
-11 -36 9 -21 17 -26 18 -40 5 -14 -12 -16 -12 -16 1 0 8 4 12 9 9 4 -3 8 1 8
9 0 10 -8 13 -25 9 -24 -4 -25 -6 -10 -28 17 -27 20 -54 5 -54 -5 0 -10 -9
-10 -20 0 -12 -7 -20 -16 -20 -26 0 -44 -26 -44 -63 0 -28 4 -35 18 -32 9 1
11 0 5 -2 -7 -3 -13 -9 -13 -15 0 -6 -6 -5 -15 2 -27 22 -38 -3 -15 -33 23
-29 14 -42 -15 -21 -10 8 -13 14 -6 14 7 0 9 5 5 11 -4 7 -10 7 -16 1 -10 -10
-99 33 -106 50 -2 4 -10 8 -17 8 -7 0 -27 12 -44 26 -17 14 -31 23 -31 19 0
-4 -6 -2 -14 4 -8 7 -12 22 -10 34 4 19 3 19 -7 -3 -7 -15 -13 -20 -16 -12 -3
6 -10 12 -16 12 -22 0 -157 86 -150 95 5 4 3 5 -4 1 -12 -6 -61 18 -74 37 -3
5 -10 9 -15 10 -5 1 -8 5 -7 9 2 4 -5 4 -14 1 -10 -4 -14 -2 -10 4 4 6 -1 10
-11 9 -9 0 -16 5 -14 12 1 8 -2 11 -7 8 -14 -9 -42 5 -34 17 4 6 1 7 -6 3 -7
-5 -20 -1 -29 7 -9 8 -22 16 -27 18 -45 17 -133 74 -128 82 3 6 1 7 -5 3 -14
-8 -74 28 -64 39 4 5 2 5 -4 2 -7 -4 -52 16 -100 44 -461 265 -3290 1898
-3327 1920 l-49 29 -66 -36 c-37 -21 -112 -64 -167 -97 -55 -33 -120 -71 -145
-85 -25 -14 -56 -33 -70 -42 -14 -9 -106 -63 -205 -120 -99 -57 -234 -135
-300 -175 -107 -65 -154 -93 -220 -129 -11 -6 -76 -45 -145 -85 -69 -41 -168
-99 -220 -129 -52 -30 -122 -72 -155 -92 -33 -20 -80 -48 -105 -62 -82 -46
-115 -65 -196 -112 -43 -26 -86 -51 -94 -56 -47 -29 -224 -133 -266 -156 -161
-90 -243 -158 -275 -228 -24 -52 -24 -68 1 -116 27 -54 67 -82 290 -207 25
-14 92 -54 150 -88 132 -78 280 -164 345 -200 28 -15 102 -58 165 -95 309
-180 361 -210 366 -210 3 0 28 -15 57 -33 29 -18 77 -47 107 -64 59 -32 59
-32 250 -143 69 -40 140 -81 158 -92 17 -10 47 -26 65 -37 17 -10 61 -35 97
-56 36 -20 70 -40 75 -44 6 -5 35 -22 65 -38 79 -43 123 -69 167 -96 21 -13
63 -37 93 -54 30 -16 71 -40 90 -51 19 -12 69 -40 110 -63 41 -24 119 -69 173
-101 53 -32 99 -58 101 -58 2 0 33 -17 67 -38 35 -22 172 -101 304 -177 132
-76 254 -146 270 -155 17 -10 100 -58 185 -107 85 -49 175 -101 200 -115 132
-76 529 -305 550 -318 17 -10 378 -219 430 -248 19 -11 145 -84 280 -162 226
-132 521 -302 945 -545 94 -54 222 -128 285 -165 106 -62 1477 -854 1580 -912
25 -14 389 -225 810 -468 421 -243 853 -493 960 -555 107 -62 1678 -968 3490
-2014 1812 -1047 3312 -1912 3333 -1922 186 -95 546 -81 765 30 31 16 653 378
1381 805 728 427 1328 773 1334 769 5 -3 8 -2 4 3 -6 10 1388 830 1409 828 8
-1 12 1 9 5 -5 9 794 479 800 471 2 -3 10 2 17 11 14 17 993 592 1004 589 4
-1 10 2 13 7 8 13 145 93 158 93 6 0 13 4 15 9 2 5 10 11 18 13 8 2 19 8 25
14 23 25 617 364 627 358 6 -4 8 -3 5 3 -5 8 62 53 108 72 5 2 16 10 24 18 7
8 20 12 28 9 8 -3 12 -2 9 2 -7 12 52 44 66 36 7 -4 8 -3 4 4 -8 14 50 46 66
36 6 -4 8 -3 5 4 -7 10 264 175 289 175 7 0 11 3 9 7 -4 7 31 27 49 28 5 0 12
4 15 9 6 10 108 73 117 73 2 0 18 10 34 22 26 18 31 19 47 7 16 -13 17 -12 4
4 -12 15 -11 17 2 17 8 0 17 4 19 8 6 15 78 53 88 47 6 -3 13 1 16 9 3 9 47
39 97 68 108 62 112 65 102 48 -5 -9 -4 -11 4 -6 6 4 9 11 6 15 -2 5 19 21 48
37 29 16 60 33 69 39 123 74 162 94 170 88 6 -3 8 -2 5 4 -6 9 111 83 132 83
5 0 11 4 13 8 3 8 167 106 218 130 30 14 63 35 70 43 12 15 51 29 62 23 6 -4
8 -3 5 3 -8 13 130 97 156 96 9 -1 15 2 12 7 -7 12 102 73 116 64 7 -4 9 -3 5
4 -4 6 21 26 61 49 37 21 75 43 85 48 70 41 186 110 251 149 43 26 76 41 72
34 -4 -7 -1 -6 7 3 23 27 67 51 79 43 7 -4 9 -3 6 3 -10 16 71 57 87 44 9 -8
13 -7 13 4 0 8 -5 12 -11 9 -6 -3 -2 2 8 10 11 9 24 16 28 16 4 0 27 14 50 31
43 30 43 30 59 10 14 -17 19 -18 28 -7 13 16 -2 32 -19 21 -5 -3 -10 -2 -10 4
0 6 10 15 21 22 17 9 20 8 14 -3 -3 -7 0 -6 7 4 23 27 129 87 145 81 12 -5 12
-7 1 -14 -7 -5 -8 -9 -3 -9 6 0 4 -4 -3 -9 -11 -7 -10 -9 3 -14 11 -5 14 -3 9
5 -5 8 -2 9 11 4 15 -5 16 -4 5 9 -7 8 -9 15 -5 15 4 0 3 6 -3 13 -8 10 -6 16
9 25 11 7 25 10 31 6 7 -4 8 -3 4 4 -3 6 3 16 14 22 11 6 20 7 20 3 0 -4 6 1
13 11 15 20 46 16 72 -10 8 -9 15 -11 15 -4 0 6 -11 15 -25 22 -25 11 -24 34
2 24 8 -3 11 -1 8 4 -3 6 4 15 17 20 13 6 48 26 78 45 30 19 63 34 73 35 10 0
16 4 13 8 -7 12 92 64 106 56 7 -4 8 -3 4 4 -4 7 -3 12 2 12 5 0 26 11 46 25
21 14 34 20 30 13 -4 -7 3 -3 15 9 18 20 95 66 111 68 3 0 25 14 50 31 89 61
160 98 146 76 -3 -5 8 -8 24 -8 17 0 28 2 25 4 -3 3 1 12 7 21 10 12 8 12 -8
-2 -25 -21 -31 -21 -31 -1 0 9 12 18 29 21 15 3 28 9 28 13 0 13 89 62 100 55
6 -3 10 0 10 8 0 8 8 18 18 21 20 8 69 35 106 59 18 12 27 14 32 5 5 -7 3 -8
-6 -3 -8 5 -11 4 -6 -3 3 -6 -2 -13 -11 -16 -15 -4 -14 -4 2 -3 11 1 25 -2 32
-6 12 -8 12 17 0 29 -13 13 -7 21 35 50 62 42 78 57 78 72 0 7 10 17 23 22 12
5 16 9 10 9 -10 1 -10 7 0 29 6 15 16 30 21 34 6 4 5 15 -3 30 -6 13 -13 31
-15 40 -1 10 -10 26 -20 37 -11 12 -14 21 -6 26 14 8 3 25 -16 25 -9 0 -12 -5
-8 -11 4 -7 -7 -4 -25 7 -17 10 -31 22 -31 26 0 13 12 9 25 -9 9 -13 14 -13
20 -3 5 9 4 11 -3 6 -7 -4 -12 -2 -12 3 0 6 6 11 13 11 8 0 7 3 -3 9 -8 6 -18
7 -22 5 -17 -11 -48 -12 -48 -3 0 6 -4 8 -9 4 -5 -3 -15 1 -23 8 -7 8 -27 20
-43 28 -17 8 -30 19 -30 26 0 15 -12 26 -33 29 -15 2 -14 1 2 -12 38 -27 0
-13 -54 21 -30 19 -47 35 -38 35 23 0 49 -11 44 -19 -3 -4 5 -8 16 -8 20 -2
20 -1 -2 14 -22 15 -22 17 -5 30 11 7 14 13 8 13 -7 0 -15 -4 -18 -10 -3 -5
-11 -10 -16 -10 -6 0 -7 5 -3 12 4 7 3 8 -4 4 -6 -4 -20 -2 -30 3 -14 7 -19 6
-19 -4 0 -7 7 -11 16 -8 14 4 14 3 2 -5 -14 -10 -51 0 -51 14 0 3 6 2 13 -2 6
-4 9 -3 4 1 -4 5 -17 10 -29 12 -11 2 -27 11 -35 21 -8 9 -11 11 -8 4 6 -11 3
-12 -14 -3 -11 7 -21 15 -21 19 0 12 44 10 52 -2 5 -7 8 -4 8 7 0 9 -8 17 -17
17 -16 1 -16 2 2 16 19 14 19 15 -3 11 -12 -2 -29 -13 -38 -25 -14 -20 -44
-21 -44 -1 0 4 6 6 14 3 8 -3 17 0 21 6 3 6 3 10 -2 9 -26 -4 -33 2 -24 19 12
22 11 62 -1 62 -5 0 -5 -12 -2 -27 5 -23 4 -26 -7 -15 -20 18 -34 14 -17 -5
12 -16 15 -27 9 -48 0 -3 -10 3 -21 13 -12 9 -24 17 -28 17 -16 2 -93 47 -113
68 -12 12 -18 15 -14 7 8 -13 7 -13 -8 -1 -10 8 -41 27 -70 42 -29 15 -51 33
-49 39 1 6 -2 9 -8 5 -5 -3 -33 6 -60 21 -36 20 -47 30 -38 36 9 6 7 8 -7 4
-25 -7 -47 6 -43 24 2 8 -6 15 -17 17 l-20 3 20 -10 20 -10 -20 3 c-24 3 -27
33 -3 31 10 -1 14 4 11 13 -5 12 -8 12 -23 -2 -9 -8 -20 -12 -25 -8 -4 5 -4 2
0 -6 8 -14 -81 32 -175 91 -25 15 -55 32 -67 38 -13 5 -23 14 -23 20 0 5 -7
10 -16 10 -23 0 -174 92 -168 102 3 4 -1 5 -9 2 -8 -3 -22 2 -30 11 -9 9 -20
16 -24 16 -4 1 -7 5 -5 11 1 5 -2 7 -8 3 -9 -6 -49 11 -60 25 -3 3 -21 14 -40
23 -19 9 -64 35 -100 56 -36 22 -80 47 -97 55 -35 16 -45 29 -15 20 13 -5 14
-4 3 4 -8 6 -19 8 -25 6 -15 -5 -122 61 -119 74 1 5 -6 8 -16 5 -11 -3 -27 4
-40 18 -11 13 -21 19 -21 15 0 -10 -108 51 -138 78 -13 12 -26 20 -28 18 -8
-5 -138 70 -151 87 -6 9 -9 20 -6 25 4 5 1 6 -6 2 -6 -4 -8 -12 -5 -18 4 -5
-12 1 -35 14 -22 12 -41 26 -41 30 0 8 69 46 84 46 5 0 12 4 15 9 3 5 21 18
40 30 l34 21 36 -20 c118 -66 141 -81 135 -90 -4 -7 -2 -8 4 -4 15 9 113 -45
105 -58 -3 -5 -1 -6 6 -2 6 4 17 3 24 -2 12 -10 188 -112 240 -139 15 -8 27
-22 28 -31 0 -11 2 -13 6 -4 4 9 17 6 51 -14 26 -15 51 -32 57 -36 13 -12 72
-44 108 -58 15 -7 27 -16 27 -21 0 -5 4 -9 9 -9 18 0 161 -87 154 -94 -4 -4 0
-4 8 -1 9 3 27 -5 44 -22 16 -15 25 -22 21 -15 -7 11 -4 12 13 3 11 -7 21 -16
21 -22 0 -6 -4 -7 -10 -4 -17 11 -32 -5 -19 -21 9 -11 14 -10 28 6 11 14 20
17 30 11 13 -8 13 -12 1 -28 -14 -17 -14 -17 6 -1 20 17 21 17 44 -5 14 -12
27 -21 30 -21 13 3 49 -20 44 -28 -3 -5 0 -8 8 -6 19 4 89 -39 86 -54 -2 -7
-10 -18 -18 -24 -11 -10 -8 -11 18 -8 18 2 31 0 28 -4 -3 -5 2 -9 11 -9 11 0
7 8 -13 24 -19 15 -23 23 -14 23 22 0 61 -30 55 -41 -3 -5 0 -6 8 -4 20 8 150
-67 135 -78 -9 -5 -6 -6 7 -3 39 11 66 -31 41 -64 -9 -12 -8 -13 4 -4 8 6 25
10 37 9 12 -1 19 3 16 8 -3 6 22 -5 56 -24 48 -27 58 -35 44 -41 -14 -6 -12
-7 7 -6 31 2 113 -39 105 -53 -4 -5 -3 -9 2 -8 4 1 17 1 28 0 17 -1 18 -3 5
-11 -13 -8 -13 -10 -1 -10 15 0 102 -39 111 -49 3 -3 10 -7 15 -8 15 -2 155
-84 155 -90 0 -3 -7 -2 -16 1 -14 5 -15 4 -5 -8 9 -11 9 -15 -1 -19 -8 -3 -8
-6 -2 -6 6 -1 17 5 24 13 9 12 17 13 36 4 13 -6 24 -15 24 -20 0 -12 -12 -10
-30 7 -16 14 -18 14 -23 1 -4 -9 -1 -18 5 -22 7 -4 8 -3 4 4 -11 18 10 14 24
-3 10 -12 15 -13 21 -4 6 10 16 8 43 -6 20 -11 36 -23 36 -27 0 -5 7 -8 16 -8
36 0 146 -97 176 -155 12 -22 20 -41 19 -43 -1 -1 6 -16 15 -33 15 -31 15
-136 -1 -184 -12 -35 -36 -85 -40 -85 -11 0 -4 30 10 43 8 8 11 18 8 21 -4 4
-13 -4 -20 -16 -7 -14 -12 -17 -12 -8 0 8 6 26 14 40 8 14 14 32 15 40 0 8 -8
-1 -18 -20 -13 -28 -22 -34 -41 -32 -19 3 -22 0 -17 -13 3 -9 6 -23 6 -31 0
-9 5 -12 11 -8 8 5 10 -1 7 -20 -3 -14 -1 -26 3 -26 5 0 9 12 9 28 1 25 2 25
12 8 9 -16 7 -23 -10 -36 -12 -10 -18 -20 -15 -24 4 -3 -1 -6 -11 -6 -9 0 -14
-5 -11 -10 4 -6 1 -9 -7 -8 -7 2 -12 -2 -11 -9 2 -7 -9 -20 -23 -30 -14 -10
-34 -26 -45 -35 -10 -10 -19 -16 -19 -13 0 2 -12 -7 -27 -21 -26 -24 -28 -24
-41 -7 -13 17 -14 16 -7 -4 5 -19 3 -22 -12 -16 -10 3 -15 2 -11 -2 11 -12
-29 -38 -45 -29 -6 4 -9 3 -5 -1 5 -5 -4 -16 -20 -25 -25 -15 -29 -16 -52 -1
-13 9 -21 11 -17 5 4 -7 0 -17 -8 -24 -8 -7 -15 -10 -15 -7 0 3 -14 1 -31 -5
-24 -8 -29 -15 -25 -32 4 -17 -3 -26 -36 -45 -22 -12 -37 -18 -34 -12 4 6 1
11 -8 11 -8 0 -18 -5 -22 -12 -5 -7 -3 -8 6 -3 8 5 11 3 8 -6 -2 -7 -32 -27
-66 -44 -33 -17 -69 -38 -78 -46 -11 -9 -15 -9 -10 -1 4 6 3 12 -3 12 -5 0
-12 -8 -15 -18 -9 -26 -81 -62 -97 -48 -9 8 -10 8 -6 0 4 -6 -1 -18 -11 -26
-30 -27 -106 -65 -120 -60 -7 2 -11 -1 -10 -8 2 -6 -20 -24 -49 -39 -29 -15
-59 -34 -67 -40 -8 -7 -20 -10 -26 -6 -13 8 -13 35 0 35 6 0 10 8 10 17 0 15
-2 15 -13 -2 -19 -28 -29 -57 -17 -50 6 3 10 2 10 -4 0 -11 -16 -22 -87 -62
-23 -13 -147 -86 -277 -162 -139 -82 -240 -136 -247 -131 -8 4 -9 3 -5 -5 5
-7 -5 -17 -26 -26 -18 -8 -44 -23 -58 -34 -23 -18 -26 -19 -45 -3 -11 9 -14
10 -7 2 6 -8 12 -19 12 -24 -1 -6 -10 0 -20 13 -11 13 -20 18 -20 13 0 -6 5
-14 10 -17 16 -10 12 -23 -11 -36 -17 -9 -20 -8 -14 3 3 7 1 6 -7 -3 -23 -27
-67 -51 -79 -43 -7 4 -9 3 -5 -4 8 -13 -52 -44 -67 -35 -5 3 -7 1 -4 -5 7 -10
-309 -202 -332 -202 -6 0 -11 -4 -11 -8 0 -5 -12 -14 -26 -21 -21 -9 -30 -9
-43 1 -14 11 -14 11 -3 -4 11 -14 10 -18 -8 -28 -11 -6 -26 -8 -32 -4 -7 5 -8
3 -3 -6 6 -10 4 -12 -11 -6 -10 4 -15 4 -12 0 4 -3 -8 -16 -26 -29 -53 -36
-156 -95 -156 -89 0 3 -12 -4 -26 -15 -15 -11 -31 -18 -37 -14 -5 3 -7 2 -4
-4 3 -5 -62 -49 -146 -98 -330 -193 -318 -187 -336 -173 -14 11 -14 11 -3 -3
11 -14 -4 -25 -115 -90 -70 -41 -135 -78 -145 -84 -10 -5 -86 -50 -170 -100
-84 -49 -155 -88 -157 -86 -2 1 -7 -1 -10 -6 -13 -19 -62 -43 -73 -37 -6 4 -8
3 -5 -3 3 -5 -8 -17 -24 -27 -25 -15 -33 -16 -47 -4 -15 11 -15 11 -5 -2 10
-14 3 -21 -45 -50 -31 -18 -68 -41 -82 -49 -21 -14 -23 -14 -15 -1 5 8 -2 5
-16 -8 -31 -29 -110 -77 -107 -64 2 6 -1 10 -7 10 -5 1 -9 -6 -7 -14 3 -13
-10 -19 -33 -14 -5 1 -7 -2 -2 -6 8 -9 -253 -165 -264 -158 -4 2 -11 -2 -16
-9 -8 -14 -178 -117 -198 -120 -5 -1 -13 -6 -16 -10 -14 -19 -262 -156 -272
-150 -5 3 -7 2 -4 -3 6 -11 -739 -450 -759 -448 -8 1 -12 -1 -9 -5 4 -8 -917
-551 -934 -551 -5 0 -11 -4 -13 -8 -2 -6 -2135 -1260 -2290 -1346 -20 -12
-558 -327 -1195 -700 -637 -374 -1189 -693 -1227 -709 -132 -55 -246 -79 -416
-84 -172 -6 -280 8 -397 52 -48 19 -1897 1077 -2568 1470 -91 54 -4122 2380
-4205 2427 -58 33 -1688 974 -1715 990 -50 30 -3180 1837 -3265 1885 -19 11
-58 34 -86 50 -27 17 -70 41 -95 55 -88 50 -385 221 -439 253 -30 18 -72 42
-92 54 -21 12 -54 30 -73 41 -19 11 -52 29 -72 41 -21 12 -42 25 -48 29 -5 4
-118 70 -250 145 -132 76 -357 206 -500 288 -143 83 -289 167 -325 187 -36 20
-100 58 -143 83 -43 26 -80 47 -82 47 -2 0 -61 34 -130 75 -69 41 -127 75
-130 75 -2 0 -33 17 -67 38 -35 21 -117 69 -183 107 -66 37 -153 88 -192 112
-40 23 -75 43 -78 43 -3 0 -34 18 -68 39 -54 34 -204 121 -417 241 -36 20
-116 67 -179 103 -62 37 -116 67 -119 67 -3 0 -13 6 -21 14 -9 7 -47 30 -86
51 -38 21 -86 48 -105 60 -19 12 -42 24 -50 28 -8 4 -22 11 -30 17 -14 10
-164 97 -312 181 -37 21 -82 47 -100 58 -18 10 -89 51 -158 91 -284 163 -322
192 -372 279 -28 48 -33 67 -36 143 -4 80 -2 92 26 151 42 90 106 164 186 215
40 25 206 123 361 212 22 13 117 69 210 124 94 55 179 106 190 112 38 21 200
116 230 135 17 10 37 22 45 26 8 4 92 52 185 108 94 55 177 104 185 108 8 4
24 13 35 20 23 14 267 157 293 172 25 14 224 131 307 180 39 23 139 81 223
130 83 48 152 91 152 94 0 4 -17 15 -37 26 -77 40 -199 118 -219 140 -40 47
-55 94 -103 337 -48 241 -52 287 -27 327 9 14 13 14 22 -1z m4581 -34 c-3 -3
-12 -4 -19 -1 -8 3 -5 6 6 6 11 1 17 -2 13 -5z m-4474 -88 c-4 -5 1 -7 10 -3
9 3 21 -1 29 -11 12 -15 11 -16 -4 -3 -11 8 -18 9 -18 3 0 -6 8 -16 18 -21 9
-6 12 -11 6 -11 -6 0 -17 7 -24 15 -7 9 -19 14 -27 11 -9 -4 -11 -1 -7 5 4 6
0 15 -7 20 -10 6 -8 8 8 6 12 0 19 -5 16 -11z m4317 4 c-19 -13 -30 -13 -30 0
0 6 10 10 23 10 18 0 19 -2 7 -10z m-4196 -78 c3 -5 -1 -9 -9 -9 -8 0 -12 4
-9 9 3 4 7 8 9 8 2 0 6 -4 9 -8z m70 -19 c-13 -10 -13 -12 -1 -15 13 -3 13 -5
1 -16 -12 -11 -14 -10 -14 3 0 8 -6 15 -14 15 -8 0 -17 4 -20 9 -4 5 4 7 16 4
17 -4 19 -2 9 5 -11 8 -8 10 13 9 22 -2 24 -4 10 -14z m146 -97 c0 -6 -5 -5
-12 2 -16 16 -41 16 -32 0 4 -8 3 -10 -2 -5 -5 5 -9 12 -9 15 0 4 -4 12 -7 18
-4 6 8 4 27 -4 19 -9 35 -21 35 -26z m573 37 c-13 -2 -33 -2 -45 0 -13 2 -3 4
22 4 25 0 35 -2 23 -4z m-543 -25 c0 -6 -6 -5 -15 2 -8 7 -15 14 -15 16 0 2 7
1 15 -2 8 -4 15 -11 15 -16z m75 -78 c3 -5 1 -10 -4 -10 -6 0 -11 5 -11 10 0
6 2 10 4 10 3 0 8 -4 11 -10z m868 -7 c-13 -2 -33 -2 -45 0 -13 2 -3 4 22 4
25 0 35 -2 23 -4z m2160 0 c-13 -2 -33 -2 -45 0 -13 2 -3 4 22 4 25 0 35 -2
23 -4z m-2320 -40 c-13 -2 -33 -2 -45 0 -13 2 -3 4 22 4 25 0 35 -2 23 -4z
m640 -30 c-13 -2 -33 -2 -45 0 -13 2 -3 4 22 4 25 0 35 -2 23 -4z m-1143 -67
c-7 -7 -13 -7 -20 0 -6 6 -3 10 10 10 13 0 16 -4 10 -10z m1800 -6 c0 -6 -33
-10 -80 -10 -47 0 -80 4 -80 10 0 6 33 10 80 10 47 0 80 -4 80 -10z m-37 -27
c-24 -2 -62 -2 -85 0 -24 2 -5 4 42 4 47 0 66 -2 43 -4z m-1243 -197 c0 -2 -8
-10 -17 -17 -16 -13 -17 -12 -4 4 13 16 21 21 21 13z m29211 -229 c53 -14 128
-38 166 -55 51 -21 719 -400 923 -523 8 -5 103 -59 210 -120 107 -62 198 -116
201 -121 3 -5 8 -8 10 -6 7 5 279 -154 275 -161 -3 -4 3 -7 13 -8 27 -2 82
-38 73 -48 -4 -5 -2 -5 5 -1 15 8 106 -47 96 -59 -5 -4 -2 -5 5 -1 7 4 36 -7
68 -25 42 -24 53 -34 42 -41 -10 -7 -8 -8 5 -4 26 8 77 -21 77 -44 0 -13 6
-20 18 -19 10 0 12 3 5 6 -7 2 -13 8 -13 13 0 5 14 2 30 -6 36 -18 38 -37 8
-52 -13 -6 -17 -11 -10 -11 6 -1 20 7 31 18 21 21 49 12 35 -10 -6 -11 -5 -12
7 -2 13 10 20 9 37 -7 12 -11 25 -20 30 -20 17 0 34 -28 22 -35 -18 -11 -1
-24 23 -17 20 5 21 4 8 -11 -12 -15 -12 -17 3 -11 12 5 15 2 10 -10 -3 -9 -11
-16 -16 -16 -6 0 -6 -6 1 -14 9 -10 9 -16 1 -21 -15 -9 9 -38 27 -31 7 3 13 1
13 -4 0 -6 -4 -10 -10 -10 -5 0 -10 -11 -10 -25 0 -29 12 -32 31 -8 12 15 12
16 -3 10 -10 -3 -18 -2 -18 4 0 6 7 9 17 7 26 -5 28 -57 3 -75 -11 -8 -20 -20
-19 -26 1 -7 -1 -20 -6 -30 -4 -11 -3 -23 3 -29 8 -8 11 -6 11 8 0 10 2 28 5
39 2 11 5 23 5 28 1 4 6 7 12 7 5 0 7 -5 3 -12 -4 -7 -9 -26 -11 -43 -2 -16
-11 -36 -21 -43 -9 -7 -17 -21 -17 -30 0 -24 -81 -107 -90 -93 -3 6 0 14 8 16
7 3 20 21 27 40 11 29 16 33 29 22 12 -9 13 -9 7 1 -4 7 -2 12 6 13 7 1 0 5
-17 8 -34 8 -54 3 -34 -10 11 -6 10 -12 -4 -27 -9 -10 -17 -24 -17 -30 0 -6
-6 -9 -12 -7 -18 7 -42 -10 -34 -23 4 -6 13 -9 21 -5 8 3 15 1 15 -4 0 -12
-56 -44 -64 -36 -3 3 -6 2 -6 -3 0 -6 -19 -21 -42 -34 -22 -12 -38 -18 -34
-12 4 6 -2 8 -15 5 -14 -4 -17 -8 -8 -13 8 -6 2 -13 -20 -24 -17 -9 -37 -14
-43 -10 -7 4 -8 3 -4 -4 8 -14 -50 -46 -66 -36 -6 4 -8 3 -5 -4 7 -9 -14 -23
-115 -81 -59 -33 -100 -56 -140 -80 -21 -13 -43 -19 -49 -15 -7 4 -9 3 -6 -3
9 -14 -461 -285 -476 -276 -7 3 -9 3 -5 -2 10 -11 -50 -47 -64 -39 -6 4 -8 3
-5 -2 7 -12 -892 -532 -990 -573 -272 -112 -601 -112 -868 1 -65 28 -641 354
-1100 623 -49 29 -153 89 -230 132 -77 44 -158 91 -180 105 -22 13 -65 38 -95
55 -30 16 -71 39 -90 50 -64 38 -404 235 -446 259 -95 54 -152 140 -161 242
-6 67 14 150 49 202 24 35 99 97 147 121 14 8 62 35 106 60 114 66 322 186
375 217 25 14 380 219 790 455 410 237 772 443 805 458 75 34 182 67 277 85
114 21 338 12 459 -19z m-28681 -122 c0 -7 -30 -13 -34 -7 -3 4 4 9 15 9 10 1
19 0 19 -2z m31116 -1293 c0 -4 6 -20 12 -35 16 -39 13 -49 -3 -12 -9 19 -14
24 -15 13 0 -20 -15 -24 -25 -8 -3 6 1 13 10 16 11 5 13 10 5 19 -5 6 -7 15
-3 18 7 7 17 1 19 -11z m-116 -366 c0 -2 -7 -7 -16 -10 -8 -3 -12 -2 -9 4 6
10 25 14 25 6z m-38619 -26 c119 -11 224 -36 326 -76 83 -32 1184 -664 1177
-676 -3 -4 1 -5 9 -2 8 3 21 -2 30 -10 9 -9 19 -16 22 -16 4 0 34 -16 68 -36
34 -20 87 -51 117 -67 112 -62 160 -94 152 -102 -4 -5 -1 -5 6 -1 8 5 21 1 33
-10 11 -10 25 -19 32 -20 25 -3 196 -111 189 -119 -4 -5 -1 -5 7 0 7 4 16 4
20 -1 3 -5 26 -20 51 -33 25 -14 48 -29 52 -35 4 -6 8 -7 8 -3 0 4 9 3 20 -3
11 -6 17 -16 14 -22 -5 -7 -2 -9 8 -6 8 4 28 -3 44 -13 16 -11 39 -24 52 -30
13 -5 20 -14 17 -19 -5 -8 -11 -7 -21 1 -8 6 -17 10 -20 7 -2 -3 7 -13 21 -22
15 -10 24 -12 23 -5 -2 6 3 14 10 16 7 3 12 -3 12 -14 0 -13 2 -15 9 -5 6 10
20 2 54 -30 26 -24 47 -48 47 -54 0 -7 7 -17 14 -24 24 -19 41 -80 26 -93 -10
-9 -12 -8 -7 6 4 10 3 16 -2 12 -8 -5 -9 -21 -2 -68 1 -11 21 2 21 14 0 6 -5
7 -12 3 -7 -4 -8 -3 -4 5 4 6 12 9 17 6 8 -6 6 -38 -5 -90 -3 -11 -5 -27 -5
-35 -1 -12 -3 -12 -9 -2 -6 8 -9 2 -9 -18 0 -39 -54 -115 -81 -114 -12 0 -18
-5 -15 -12 2 -7 -6 -18 -19 -25 -20 -10 -22 -10 -13 2 6 8 2 6 -9 -6 -10 -11
-21 -20 -25 -20 -3 0 -19 -10 -36 -21 -63 -45 -95 -56 -113 -42 -15 12 -16 11
-4 -4 11 -14 10 -18 -7 -27 -11 -6 -28 -8 -38 -5 -13 4 -14 3 -5 -4 10 -7 -7
-21 -67 -56 -45 -26 -87 -44 -93 -40 -7 5 -8 3 -3 -6 6 -10 4 -12 -8 -7 -9 3
-16 3 -14 -1 1 -4 -1 -7 -5 -7 -3 0 -17 -10 -30 -21 -13 -12 -52 -37 -88 -55
-36 -19 -67 -37 -70 -40 -15 -17 -1466 -847 -1524 -871 -244 -104 -544 -115
-798 -29 -111 37 -137 51 -543 286 -192 111 -370 213 -395 227 -55 31 -530
305 -620 358 -255 149 -361 210 -366 210 -3 0 -30 16 -60 35 -30 19 -56 35
-58 35 -2 0 -34 18 -70 40 -36 22 -68 40 -72 40 -16 0 -113 77 -136 109 -78
109 -76 269 6 375 32 42 86 76 511 320 94 53 177 102 185 107 12 7 246 142
420 241 19 11 258 149 530 306 272 157 527 301 567 319 92 42 241 82 346 92
45 5 87 9 92 10 6 0 58 -4 116 -9z m10915 -431 c19 -22 19 -22 -1 -12 -11 6
-28 9 -38 8 -15 -3 -16 -1 -6 11 16 19 23 18 45 -7z m55 -86 c10 -11 10 -14 2
-9 -9 5 -13 0 -14 -16 0 -15 -3 -18 -6 -8 -4 8 -13 20 -22 27 -14 10 -12 11 8
6 17 -4 22 -3 17 5 -11 18 0 14 15 -5z m-17 -68 c-4 -8 -10 -15 -15 -15 -5 0
-9 7 -9 15 0 8 7 15 15 15 9 0 12 -6 9 -15z m-189 -35 c3 -5 1 -10 -4 -10 -6
0 -11 5 -11 10 0 6 2 10 4 10 3 0 8 -4 11 -10z m45 -14 c0 -19 -17 -29 -37
-22 -12 5 -13 9 -3 21 16 19 40 19 40 1z m470 -6 c8 -5 11 -10 5 -10 -5 0 -17
5 -25 10 -8 5 -10 10 -5 10 6 0 17 -5 25 -10z m-401 -27 c-5 -32 21 -47 37
-21 5 8 2 9 -9 5 -10 -3 -17 -2 -17 3 0 6 9 10 20 10 21 0 27 -15 10 -25 -6
-4 -8 -11 -4 -16 3 -5 -9 -4 -27 4 -32 13 -49 47 -23 47 8 0 13 -3 13 -7z
m-49 -28 c-6 -8 -18 -11 -26 -8 -22 8 -17 18 11 19 20 2 23 -1 15 -11z m14
-17 c-5 -8 -2 -9 9 -5 10 4 17 2 17 -4 0 -6 6 -9 13 -6 7 3 13 -3 13 -14 0
-15 -3 -16 -16 -5 -8 7 -23 16 -33 19 -15 6 -16 27 -1 27 3 0 2 -5 -2 -12z
m83 -25 c-4 -3 -2 -12 4 -19 7 -8 7 -14 -1 -19 -5 -3 -10 -2 -10 4 0 5 -3 16
-6 25 -4 10 -1 16 7 16 7 0 9 -3 6 -7z m101 -38 c3 -3 -1 -5 -9 -5 -8 0 0 -9
16 -20 17 -11 24 -20 17 -20 -7 0 -10 -5 -7 -10 4 -6 11 -8 16 -4 13 7 41 -15
33 -27 -3 -5 -10 -7 -15 -3 -5 3 -7 10 -3 15 3 6 0 10 -7 8 -28 -3 -40 1 -37
14 2 8 -10 25 -27 40 -29 25 -29 26 -6 22 13 -2 26 -7 29 -10z m47 -23 c-3 -3
-11 0 -18 7 -9 10 -8 11 6 5 10 -3 15 -9 12 -12z m-81 -8 c5 -14 4 -15 -9 -4
-17 14 -19 20 -6 20 5 0 12 -7 15 -16z m153 -49 c0 -8 -4 -12 -9 -9 -5 3 -6
10 -3 15 9 13 12 11 12 -6z m-23 -13 c3 -5 -1 -9 -9 -9 -8 0 -12 4 -9 9 3 4 7
8 9 8 2 0 6 -4 9 -8z m90 -61 c4 -5 -3 -7 -14 -4 -23 6 -26 13 -6 13 8 0 17
-4 20 -9z m91 -59 c-3 -3 -11 0 -18 7 -9 10 -8 11 6 5 10 -3 15 -9 12 -12z
m177 -86 c7 4 8 2 4 -5 -9 -13 -26 -5 -25 12 0 9 2 8 6 -1 2 -6 10 -9 15 -6z
m20372 -847 c-3 -5 -10 -7 -15 -3 -5 3 -7 10 -3 15 3 5 10 7 15 3 5 -3 7 -10
3 -15z m496 -1187 c0 -10 -60 -45 -60 -35 0 4 -7 0 -14 -10 -10 -13 -16 -15
-21 -7 -9 15 4 29 33 33 12 2 28 9 34 15 14 14 28 16 28 4z m7210 -167 c31 -8
77 -24 102 -35 72 -32 1033 -589 1037 -602 2 -6 -1 -8 -9 -3 -9 5 -11 4 -6 -4
6 -9 11 -9 22 0 11 9 14 8 14 -7 0 -13 3 -15 8 -7 6 9 22 4 60 -21 28 -19 61
-37 72 -41 11 -3 20 -11 20 -16 0 -5 6 -9 13 -9 20 0 38 -16 41 -35 2 -11 9
-21 17 -23 11 -3 11 -1 -1 8 -11 9 -11 11 -1 8 7 -2 25 -24 39 -48 19 -34 26
-59 26 -104 0 -37 -4 -61 -11 -63 -7 -3 -10 -10 -7 -17 3 -7 -5 -24 -16 -37
-12 -13 -18 -17 -14 -9 4 8 4 12 -1 8 -4 -4 -13 -18 -19 -30 -13 -26 -115 -89
-134 -83 -7 3 -11 1 -8 -4 5 -8 -181 -121 -200 -121 -4 0 -15 -6 -23 -14 -25
-23 -850 -496 -917 -527 -148 -67 -336 -76 -495 -22 -77 26 -333 168 -959 533
-63 37 -135 79 -160 92 -105 59 -207 122 -228 142 -42 37 -62 90 -62 159 0
105 39 151 210 245 25 13 59 33 75 43 25 16 278 162 444 256 24 14 155 89 291
168 343 199 358 206 485 231 81 16 210 11 295 -11z"/>
<path d="M20597 27209 c7 -7 15 -10 18 -7 3 3 -2 9 -12 12 -14 6 -15 5 -6 -5z"/>
<path d="M33858 28663 c6 -2 10 -9 7 -14 -4 -5 1 -6 10 -2 13 5 14 7 3 14 -7
5 -17 8 -23 8 -5 0 -4 -3 3 -6z"/>
<path d="M33950 28596 c0 -2 9 -6 20 -9 11 -3 18 -1 14 4 -5 9 -34 13 -34 5z"/>
<path d="M34087 28487 c-3 -8 1 -14 8 -14 7 0 11 6 8 14 -3 7 -6 13 -8 13 -2
0 -5 -6 -8 -13z"/>
<path d="M34048 28383 c7 -3 16 -2 19 1 4 3 -2 6 -13 5 -11 0 -14 -3 -6 -6z"/>
<path d="M34320 28380 c0 -4 10 -16 23 -28 24 -22 61 -29 71 -13 3 4 -5 6 -18
4 -13 -3 -27 0 -30 6 -5 7 -1 8 11 4 15 -6 16 -5 3 9 -8 9 -16 12 -18 7 -2 -5
-8 -9 -14 -9 -6 0 -8 6 -5 13 3 8 -1 14 -9 14 -8 0 -14 -3 -14 -7z"/>
<path d="M34050 28366 c0 -2 7 -7 16 -10 8 -3 12 -2 9 4 -6 10 -25 14 -25 6z"/>
<path d="M34090 28356 c0 -2 7 -7 16 -10 8 -3 12 -2 9 4 -6 10 -25 14 -25 6z"/>
<path d="M28910 28375 c-1 -5 -2 -21 -1 -35 1 -23 0 -23 -8 -5 -9 19 -10 19
-10 -2 -1 -25 17 -31 25 -9 3 8 4 25 1 38 -2 13 -5 19 -7 13z"/>
<path d="M28932 28330 c0 -14 2 -19 5 -12 2 6 2 18 0 25 -3 6 -5 1 -5 -13z"/>
<path d="M28925 28290 c-3 -5 -1 -10 4 -10 6 0 11 5 11 10 0 6 -2 10 -4 10 -3
0 -8 -4 -11 -10z"/>
<path d="M28920 28259 c0 -5 5 -7 10 -4 6 3 10 8 10 11 0 2 -4 4 -10 4 -5 0
-10 -5 -10 -11z"/>
<path d="M28924 28226 c-3 -8 0 -25 7 -37 6 -13 12 -36 11 -51 0 -15 4 -28 9
-28 5 0 9 -9 9 -19 0 -10 7 -21 15 -25 21 -8 19 7 -5 37 -11 14 -16 28 -12 31
13 8 2 57 -13 62 -7 3 -11 14 -8 25 6 22 -5 26 -13 5z"/>
<path d="M28860 28175 c-7 -9 -8 -15 -2 -15 5 0 12 7 16 15 3 8 4 15 2 15 -2
0 -9 -7 -16 -15z"/>
<path d="M28875 28140 c-3 -5 -1 -10 4 -10 6 0 11 5 11 10 0 6 -2 10 -4 10 -3
0 -8 -4 -11 -10z"/>
<path d="M28862 28100 c7 -10 14 -18 15 -16 6 6 -9 36 -18 36 -5 0 -4 -9 3
-20z"/>
<path d="M28836 28091 c-3 -5 1 -11 9 -14 9 -4 12 -1 8 9 -6 16 -10 17 -17 5z"/>
<path d="M28786 27995 c4 -8 8 -15 10 -15 2 0 4 7 4 15 0 8 -4 15 -10 15 -5 0
-7 -7 -4 -15z"/>
<path d="M28973 27980 c2 -8 12 -16 23 -17 13 -2 15 -1 4 4 -8 3 -19 11 -23
17 -6 7 -7 6 -4 -4z"/>
<path d="M28960 27831 c0 -6 4 -13 10 -16 6 -3 7 1 4 9 -7 18 -14 21 -14 7z"/>
<path d="M28920 27740 c-8 -5 -11 -12 -7 -17 5 -4 12 -1 16 6 7 11 10 11 14 0
3 -9 6 -10 6 -2 1 17 -13 23 -29 13z"/>
<path d="M28891 27708 c7 -16 16 -28 21 -28 13 0 10 9 -13 33 l-21 22 13 -27z"/>
<path d="M28886 27643 c-6 -14 -5 -15 5 -6 7 7 10 15 7 18 -3 3 -9 -2 -12 -12z"/>
<path d="M28831 27454 c0 -11 3 -14 6 -6 3 7 2 16 -1 19 -3 4 -6 -2 -5 -13z"/>
<path d="M28814 27398 c-12 -14 -13 -18 -3 -10 9 6 18 10 21 7 2 -3 5 2 5 10
0 19 0 19 -23 -7z"/>
<path d="M28820 27360 c-6 -11 -8 -20 -6 -20 3 0 10 9 16 20 6 11 8 20 6 20
-3 0 -10 -9 -16 -20z"/>
<path d="M28656 26852 c-3 -5 1 -9 9 -9 8 0 12 4 9 9 -3 4 -7 8 -9 8 -2 0 -6
-4 -9 -8z"/>
<path d="M27638 23533 c7 -3 16 -2 19 1 4 3 -2 6 -13 5 -11 0 -14 -3 -6 -6z"/>
<path d="M27550 23276 c0 -8 4 -17 9 -20 5 -4 7 3 4 14 -6 23 -13 26 -13 6z"/>
<path d="M27334 23236 c1 -8 5 -18 8 -22 4 -3 5 1 4 10 -1 8 -5 18 -8 22 -4 3
-5 -1 -4 -10z"/>
<path d="M27536 23242 c-3 -5 1 -9 9 -9 8 0 12 4 9 9 -3 4 -7 8 -9 8 -2 0 -6
-4 -9 -8z"/>
<path d="M27537 23204 c4 -12 3 -15 -5 -10 -16 10 -15 1 1 -12 10 -8 13 -6 14
8 1 11 -2 22 -8 25 -5 4 -6 -2 -2 -11z"/>
<path d="M27477 23063 c-4 -3 -7 -11 -7 -17 0 -6 5 -5 12 2 6 6 9 14 7 17 -3
3 -9 2 -12 -2z"/>
<path d="M27444 22991 c0 -11 5 -17 13 -14 10 4 11 9 2 19 -15 18 -15 18 -15
-5z"/>
<path d="M27450 22925 c-7 -9 -10 -18 -6 -22 3 -3 6 -1 6 6 0 7 4 10 8 7 5 -3
9 1 9 9 0 19 -2 19 -17 0z"/>
<path d="M27365 22770 c-3 -5 -1 -10 4 -10 6 0 11 5 11 10 0 6 -2 10 -4 10 -3
0 -8 -4 -11 -10z"/>
<path d="M27166 22736 c-15 -24 -15 -25 6 -21 24 5 37 15 19 15 -8 0 -11 7 -7
15 8 22 0 18 -18 -9z"/>
<path d="M27364 22701 c0 -11 4 -17 8 -15 4 3 8 -3 8 -13 0 -15 2 -16 10 -3
11 17 14 37 3 27 -3 -4 -11 0 -17 9 -10 13 -12 13 -12 -5z"/>
<path d="M27152 22685 c-11 -12 -10 -15 3 -15 8 0 15 7 15 15 0 18 -2 18 -18
0z"/>
<path d="M27280 22545 c0 -8 6 -15 13 -15 8 0 7 -4 -3 -10 -13 -8 -12 -10 3
-10 10 0 15 -4 12 -10 -3 -5 3 -10 15 -10 22 0 21 1 -17 44 -7 8 -9 16 -6 20
4 3 1 6 -5 6 -7 0 -12 -7 -12 -15z"/>
<path d="M27195 22540 c3 -5 8 -10 11 -10 2 0 4 5 4 10 0 6 -5 10 -11 10 -5 0
-7 -4 -4 -10z"/>
<path d="M27311 22444 c0 -11 3 -14 6 -6 3 7 2 16 -1 19 -3 4 -6 -2 -5 -13z"/>
<path d="M15785 27770 c-3 -5 -1 -10 4 -10 6 0 11 5 11 10 0 6 -2 10 -4 10 -3
0 -8 -4 -11 -10z"/>
<path d="M15667 27560 c-3 -11 -1 -20 4 -20 5 0 9 9 9 20 0 11 -2 20 -4 20 -2
0 -6 -9 -9 -20z"/>
<path d="M15620 27520 c0 -5 7 -7 15 -4 8 4 15 8 15 10 0 2 -7 4 -15 4 -8 0
-15 -4 -15 -10z"/>
<path d="M15547 27464 c-10 -19 -12 -32 -6 -29 6 4 13 -2 16 -14 3 -12 9 -21
14 -21 5 0 12 -1 16 -2 4 -2 8 9 8 24 1 15 -2 25 -7 22 -12 -8 -10 10 4 24 9
9 9 15 -1 25 -10 10 -11 8 -6 -8 6 -18 6 -19 -8 -3 -12 16 -15 14 -30 -18z
m28 -14 c2 -21 -10 -27 -19 -11 -7 11 4 44 12 36 3 -3 6 -14 7 -25z"/>
<path d="M15500 27380 c5 -10 8 -19 7 -21 -1 -2 0 -3 2 -1 11 6 6 39 -5 39 -9
0 -10 -5 -4 -17z"/>
<path d="M15477 27363 c-10 -9 -9 -23 1 -23 5 0 9 7 9 15 0 17 -1 18 -10 8z"/>
<path d="M16003 25794 c0 -7 7 -10 16 -6 14 5 14 4 1 -14 -14 -18 -14 -18 6
-1 11 9 24 15 27 12 4 -3 3 0 -3 7 -13 16 -47 17 -47 2z"/>
<path d="M15986 25261 c3 -3 19 -6 35 -7 17 -1 28 1 25 4 -3 3 -19 6 -36 7
-17 1 -28 -1 -24 -4z"/>
<path d="M16188 24713 c7 -3 16 -2 19 1 4 3 -2 6 -13 5 -11 0 -14 -3 -6 -6z"/>
<path d="M15833 23633 c-15 -5 -17 -23 -4 -23 5 0 11 7 15 15 3 8 4 15 3 14
-1 0 -8 -3 -14 -6z"/>
<path d="M15730 23514 c0 -8 5 -12 10 -9 6 4 8 11 5 16 -9 14 -15 11 -15 -7z"/>
<path d="M21100 18866 c0 -3 9 -10 20 -16 11 -6 20 -8 20 -6 0 3 -9 10 -20 16
-11 6 -20 8 -20 6z"/>
<path d="M21540 18759 c0 -5 -5 -7 -12 -3 -7 4 -8 3 -4 -5 6 -8 12 -9 20 -2 7
6 17 7 21 3 5 -4 5 -1 1 6 -9 15 -26 16 -26 1z"/>
<path d="M21560 18725 c7 -8 17 -15 22 -15 5 0 3 7 -6 15 -8 8 -18 15 -22 15
-3 0 -1 -7 6 -15z"/>
<path d="M21579 18613 c-13 -16 -12 -17 4 -4 16 13 21 21 13 21 -2 0 -10 -8
-17 -17z"/>
<path d="M21765 18600 c-3 -5 1 -10 10 -10 9 0 13 5 10 10 -3 6 -8 10 -10 10
-2 0 -7 -4 -10 -10z"/>
<path d="M21805 18600 c3 -5 11 -10 16 -10 6 0 7 5 4 10 -3 6 -11 10 -16 10
-6 0 -7 -4 -4 -10z"/>
<path d="M21708 18523 c7 -3 16 -2 19 1 4 3 -2 6 -13 5 -11 0 -14 -3 -6 -6z"/>
<path d="M21924 18493 c2 -9 10 -17 19 -19 13 -2 14 1 4 17 -15 23 -26 25 -23
2z"/>
<path d="M21940 18140 c0 -6 -5 -8 -12 -4 -7 4 -8 3 -4 -5 6 -9 11 -9 22 0 16
13 19 -2 4 -17 -7 -7 -6 -11 5 -11 10 0 15 8 13 20 -3 22 -28 37 -28 17z"/>
<path d="M21750 18095 c-7 -9 -10 -18 -6 -22 3 -3 6 -1 6 6 0 7 4 10 8 7 5 -3
9 1 9 9 0 19 -2 19 -17 0z"/>
<path d="M21640 18027 c0 -2 6 -10 14 -16 11 -9 16 -9 22 1 4 7 4 10 -1 6 -4
-4 -14 -3 -22 3 -7 6 -13 9 -13 6z"/>
<path d="M21540 17969 c0 -5 5 -7 10 -4 6 3 10 8 10 11 0 2 -4 4 -10 4 -5 0
-10 -5 -10 -11z"/>
<path d="M21490 17950 c-9 -6 -10 -10 -3 -10 6 0 15 5 18 10 8 12 4 12 -15 0z"/>
<path d="M21625 17891 c-6 -11 13 -26 22 -17 4 3 0 6 -8 7 -8 0 -6 4 6 9 16 7
17 9 3 9 -9 1 -19 -3 -23 -8z"/>
<path d="M21365 17850 c-3 -6 1 -7 9 -4 18 7 21 14 7 14 -6 0 -13 -4 -16 -10z"/>
<path d="M21518 17783 c7 -3 16 -2 19 1 4 3 -2 6 -13 5 -11 0 -14 -3 -6 -6z"/>
<path d="M21368 17728 c9 -9 9 -15 -1 -27 -11 -14 -10 -14 6 -2 13 10 15 17 6
27 -6 8 -14 14 -17 14 -3 0 -1 -5 6 -12z"/>
<path d="M21100 17570 c-9 -6 -10 -10 -3 -10 6 0 15 5 18 10 8 12 4 12 -15 0z"/>
<path d="M23791 18101 c-9 -6 -10 -11 -2 -15 6 -4 11 -3 11 3 0 5 8 12 18 14
12 3 13 5 2 6 -8 0 -21 -3 -29 -8z"/>
<path d="M23347 17833 c3 -7 6 -13 8 -13 2 0 5 6 8 13 3 8 -1 14 -8 14 -7 0
-11 -6 -8 -14z"/>
<path d="M23180 17735 c0 -5 5 -17 10 -25 5 -8 10 -10 10 -5 0 6 -5 17 -10 25
-5 8 -10 11 -10 5z"/>
<path d="M23173 16590 c0 -25 2 -35 4 -22 2 12 2 32 0 45 -2 12 -4 2 -4 -23z"/>
<path d="M22620 15180 c0 -5 23 -10 50 -10 28 0 50 5 50 10 0 6 -22 10 -50 10
-27 0 -50 -4 -50 -10z"/>
<path d="M22684 15115 c-4 -8 -10 -12 -15 -9 -5 3 -9 0 -9 -6 0 -7 -9 -9 -22
-6 -13 3 -18 3 -11 0 7 -3 9 -12 6 -20 -4 -10 1 -13 18 -10 13 2 23 9 21 16
-2 7 3 10 11 7 19 -7 37 11 30 29 -7 18 -22 18 -29 -1z"/>
<path d="M16529 13884 c-11 -14 -10 -18 6 -30 12 -9 14 -14 5 -14 -7 0 -11 -3
-7 -6 3 -3 11 -3 17 1 8 5 6 13 -7 28 -16 18 -16 20 -1 14 12 -4 15 -2 11 9
-7 18 -8 18 -24 -2z"/>
<path d="M16463 13853 c-7 -2 -13 -9 -13 -15 0 -6 6 -6 15 2 8 6 24 9 37 5 18
-5 20 -4 8 4 -16 11 -28 12 -47 4z"/>
<path d="M16290 13770 c-9 -6 -10 -10 -3 -10 6 0 15 5 18 10 8 12 4 12 -15 0z"/>
<path d="M22970 15249 c0 -5 5 -7 10 -4 6 3 10 8 10 11 0 2 -4 4 -10 4 -5 0
-10 -5 -10 -11z"/>
<path d="M16821 13136 c2 -2 15 -9 29 -15 24 -11 24 -11 6 3 -16 13 -49 24
-35 12z"/>
<path d="M20546 10812 c-3 -5 1 -9 9 -9 8 0 12 4 9 9 -3 4 -7 8 -9 8 -2 0 -6
-4 -9 -8z"/>
<path d="M20982 10571 c-11 -6 -9 -9 5 -13 12 -3 20 0 20 8 0 16 -6 17 -25 5z"/>
<path d="M21048 10513 c7 -3 16 -2 19 1 4 3 -2 6 -13 5 -11 0 -14 -3 -6 -6z"/>
<path d="M21082 10499 c-13 -5 -27 -7 -31 -4 -4 2 -8 -2 -8 -8 0 -7 12 -14 26
-15 20 -1 23 0 11 8 -13 8 -13 10 2 10 9 0 20 5 23 10 7 12 7 12 -23 -1z"/>
<path d="M20625 10461 c-3 -5 -2 -12 3 -15 5 -3 9 1 9 9 0 17 -3 19 -12 6z"/>
<path d="M20675 10450 c-3 -5 -1 -10 6 -10 8 0 8 -4 -1 -15 -11 -13 -10 -14 5
-9 14 6 16 4 10 -7 -5 -8 -5 -11 1 -6 5 5 9 12 9 15 0 4 4 13 8 19 6 9 3 11
-9 6 -12 -4 -15 -3 -10 5 4 7 3 12 -3 12 -5 0 -13 -4 -16 -10z"/>
<path d="M20770 10371 c0 -10 29 -36 34 -30 1 2 -6 12 -16 22 -10 9 -18 13
-18 8z"/>
<path d="M20861 10314 c0 -11 3 -14 6 -6 3 7 2 16 -1 19 -3 4 -6 -2 -5 -13z"/>
<path d="M20897 10289 c7 -7 15 -10 18 -7 3 3 -2 9 -12 12 -14 6 -15 5 -6 -5z"/>
<path d="M20933 10285 c-3 -9 -3 -19 1 -22 3 -4 6 -1 6 6 0 7 4 9 10 6 6 -3 7
1 4 9 -8 20 -13 20 -21 1z"/>
<path d="M21016 10218 c3 -5 9 -7 12 -4 3 3 12 0 21 -6 13 -10 14 -10 4 2 -15
16 -46 23 -37 8z"/>
<path d="M40500 9809 c0 -5 5 -7 10 -4 6 3 10 8 10 11 0 2 -4 4 -10 4 -5 0
-10 -5 -10 -11z"/>
<path d="M40647 9797 c-3 -8 1 -14 8 -14 7 0 11 6 8 14 -3 7 -6 13 -8 13 -2 0
-5 -6 -8 -13z"/>
<path d="M40465 9790 c-3 -6 1 -7 9 -4 18 7 21 14 7 14 -6 0 -13 -4 -16 -10z"/>
<path d="M40440 9766 c0 -2 7 -7 16 -10 8 -3 12 -2 9 4 -6 10 -25 14 -25 6z"/>
<path d="M40520 9706 c0 -2 7 -7 16 -10 8 -3 12 -2 9 4 -6 10 -25 14 -25 6z"/>
<path d="M40891 9627 c-8 -10 -7 -14 2 -14 8 0 14 6 14 14 0 7 -1 13 -2 13 -2
0 -8 -6 -14 -13z"/>
<path d="M40947 9619 c7 -9 10 -19 6 -23 -4 -4 1 -4 10 0 10 3 17 7 15 8 -2 1
-12 8 -23 16 -18 14 -19 13 -8 -1z"/>
<path d="M41055 9561 c-9 -15 15 -25 28 -12 9 9 7 10 -7 5 -13 -5 -17 -4 -12
4 4 7 5 12 2 12 -3 0 -7 -4 -11 -9z"/>
<path d="M41085 9530 c-3 -6 1 -7 9 -4 18 7 21 14 7 14 -6 0 -13 -4 -16 -10z"/>
<path d="M40906 9496 c6 -15 4 -17 -6 -11 -9 6 -11 4 -5 -4 5 -9 10 -10 18 -2
8 8 7 14 -2 24 -10 10 -11 8 -5 -7z"/>
<path d="M41205 9460 c1 -11 5 -23 10 -27 4 -5 5 -2 1 5 -4 6 -3 12 3 12 6 0
8 7 5 15 -9 22 -21 18 -19 -5z"/>
<path d="M41363 9369 c-2 -23 3 -25 10 -4 4 8 3 16 -1 19 -4 3 -9 -4 -9 -15z"/>
<path d="M41087 9369 c7 -7 15 -10 18 -7 3 3 -2 9 -12 12 -14 6 -15 5 -6 -5z"/>
<path d="M41171 9337 c-8 -10 -7 -14 2 -14 8 0 14 6 14 14 0 7 -1 13 -2 13 -2
0 -8 -6 -14 -13z"/>
<path d="M41455 9331 c-9 -15 15 -25 28 -12 9 9 7 10 -7 5 -13 -5 -17 -4 -12
4 4 7 5 12 2 12 -3 0 -7 -4 -11 -9z"/>
<path d="M41522 9291 c-11 -7 -11 -9 0 -14 9 -3 15 1 15 9 0 8 -1 14 -1 14 -1
0 -7 -4 -14 -9z"/>
<path d="M41315 9261 c6 -11 4 -13 -9 -8 -10 4 -15 3 -11 -3 8 -13 48 -6 51 9
2 7 0 7 -3 1 -3 -7 -10 -7 -21 2 -13 11 -14 11 -7 -1z"/>
<path d="M41441 9181 c-7 -5 -9 -11 -5 -14 5 -3 15 1 22 9 14 16 5 18 -17 5z"/>
<path d="M41725 9170 c3 -5 8 -10 11 -10 2 0 4 5 4 10 0 6 -5 10 -11 10 -5 0
-7 -4 -4 -10z"/>
<path d="M41700 9163 c0 -15 18 -35 23 -27 3 5 -1 15 -9 22 -8 7 -14 9 -14 5z"/>
<path d="M41841 9103 c7 -12 15 -20 18 -17 3 2 -3 12 -13 22 -17 16 -18 16 -5
-5z"/>
<path d="M41596 9088 c3 -5 17 -5 32 -2 22 4 24 3 12 -6 -10 -8 -11 -10 -2 -8
23 6 8 23 -20 23 -14 1 -24 -3 -22 -7z"/>
<path d="M41726 9017 c3 -10 9 -15 12 -12 3 3 0 11 -7 18 -10 9 -11 8 -5 -6z"/>
<path d="M41758 9023 c7 -3 16 -2 19 1 4 3 -2 6 -13 5 -11 0 -14 -3 -6 -6z"/>
<path d="M42003 9015 c0 -8 4 -12 9 -9 5 3 6 10 3 15 -9 13 -12 11 -12 -6z"/>
<path d="M41758 9003 c6 -2 18 -2 25 0 6 3 1 5 -13 5 -14 0 -19 -2 -12 -5z"/>
<path d="M42034 9002 c5 -7 -1 -15 -15 -20 l-23 -9 22 -5 c12 -4 20 -2 17 2
-3 5 1 10 7 13 10 3 10 8 -1 18 -9 9 -11 10 -7 1z"/>
<path d="M41748 8983 c7 -3 16 -2 19 1 4 3 -2 6 -13 5 -11 0 -14 -3 -6 -6z"/>
<path d="M42086 8963 c-6 -14 -5 -15 5 -6 7 7 10 15 7 18 -3 3 -9 -2 -12 -12z"/>
<path d="M42240 8870 c0 -5 5 -10 11 -10 5 0 7 5 4 10 -3 6 -8 10 -11 10 -2 0
-4 -4 -4 -10z"/>
<path d="M41985 8859 c-4 -6 -5 -12 -2 -15 2 -3 7 2 10 11 7 17 1 20 -8 4z"/>
<path d="M42045 8850 c3 -4 -2 -11 -11 -14 -9 -4 -15 -9 -12 -11 3 -3 17 1 32
9 25 13 25 14 6 19 -11 3 -18 2 -15 -3z"/>
<path d="M42250 8846 c0 -2 7 -9 15 -16 9 -7 15 -8 15 -2 0 5 -7 12 -15 16 -8
3 -15 4 -15 2z"/>
<path d="M42340 8811 c0 -6 4 -13 10 -16 6 -3 7 1 4 9 -7 18 -14 21 -14 7z"/>
<path d="M42377 8799 c7 -7 15 -10 18 -7 3 3 -2 9 -12 12 -14 6 -15 5 -6 -5z"/>
<path d="M42190 8781 c0 -7 -6 -11 -14 -8 -9 4 -13 0 -12 -11 2 -9 8 -17 15
-18 7 -2 7 0 1 3 -7 3 -4 10 7 18 10 7 15 17 10 21 -4 4 -7 2 -7 -5z"/>
<path d="M42209 8768 c-5 -21 0 -32 20 -50 14 -13 20 -16 13 -7 -6 9 -9 19 -5
22 3 4 1 7 -5 7 -6 0 -12 12 -14 28 l-3 27 -6 -27z"/>
<path d="M42403 8734 c0 -6 5 -11 11 -11 33 1 46 -5 46 -18 0 -16 25 -21 34
-7 3 5 -10 15 -29 22 -22 9 -31 17 -24 21 7 4 1 6 -13 6 -13 -1 -25 -7 -25
-13z"/>
<path d="M42291 8681 c-11 -7 -9 -10 8 -16 13 -4 25 -4 28 -1 4 3 -2 6 -13 6
-16 0 -17 2 -4 10 8 5 11 10 5 10 -5 0 -16 -4 -24 -9z"/>
<path d="M42579 8672 c-12 -15 -12 -16 2 -5 13 10 19 10 35 -2 16 -13 17 -16
4 -25 -12 -8 -11 -9 7 -7 12 2 26 7 30 12 5 4 3 5 -3 2 -7 -4 -14 0 -17 7 -3
8 -15 19 -25 25 -16 8 -23 7 -33 -7z"/>
<path d="M42530 8663 c0 -5 11 -13 25 -20 28 -13 32 -8 11 13 -16 15 -36 19
-36 7z"/>
<path d="M42340 8650 c0 -5 5 -10 11 -10 5 0 7 5 4 10 -3 6 -8 10 -11 10 -2 0
-4 -4 -4 -10z"/>
<path d="M42665 8540 c3 -5 8 -10 11 -10 2 0 4 5 4 10 0 6 -5 10 -11 10 -5 0
-7 -4 -4 -10z"/>
<path d="M42815 8531 c-3 -5 8 -19 25 -31 16 -12 30 -18 30 -14 0 5 5 3 12 -4
8 -8 8 -15 -2 -27 -18 -22 -4 -31 30 -18 18 7 32 7 36 2 3 -5 10 -9 15 -9 6 0
7 6 3 13 -5 8 -2 7 9 -2 16 -13 16 -14 0 -27 -10 -7 -35 -14 -55 -14 -20 0
-39 -4 -42 -9 -6 -9 26 -21 57 -21 21 0 47 -23 47 -40 0 -7 -7 -10 -17 -6 -11
4 -7 -3 10 -19 15 -14 32 -23 37 -20 14 8 13 35 -1 35 -7 0 -9 9 -6 21 4 15
-1 23 -19 31 -13 6 -24 15 -24 20 0 5 5 6 12 2 6 -4 8 -3 5 3 -4 6 0 13 8 17
8 3 17 1 20 -4 3 -4 -1 -10 -7 -13 -7 -2 -1 -4 13 -3 31 1 28 18 -6 36 -13 7
-22 17 -19 22 3 4 -15 8 -40 8 -44 0 -59 11 -34 26 6 4 8 3 5 -3 -3 -5 0 -10
7 -10 8 0 12 7 9 14 -3 8 -11 12 -17 10 -6 -2 -22 5 -36 15 -15 12 -26 15 -28
9 -2 -6 -8 -11 -14 -11 -6 0 -8 7 -4 15 6 16 -9 21 -19 6z m69 -30 c4 -5 -3
-7 -14 -4 -23 6 -26 13 -6 13 8 0 17 -4 20 -9z"/>
<path d="M42804 8491 c0 -11 5 -17 13 -14 10 4 11 9 2 19 -15 18 -15 18 -15
-5z"/>
<path d="M42750 8470 c-9 -6 -10 -10 -3 -10 6 0 15 5 18 10 8 12 4 12 -15 0z"/>
<path d="M42705 8440 c-6 -10 1 -14 43 -23 12 -3 20 -1 16 4 -3 5 -17 9 -32
10 -24 0 -25 1 -7 9 16 7 17 9 3 9 -9 1 -20 -4 -23 -9z"/>
<path d="M42795 8439 c-11 -16 -1 -19 13 -3 7 8 8 14 3 14 -5 0 -13 -5 -16
-11z"/>
<path d="M42835 8420 c-3 -5 -2 -10 4 -10 5 0 13 5 16 10 3 6 2 10 -4 10 -5 0
-13 -4 -16 -10z"/>
<path d="M43030 8368 c0 -20 8 -22 29 -9 9 6 10 11 2 15 -6 4 -11 1 -11 -6 0
-9 -3 -9 -10 2 -8 13 -10 12 -10 -2z"/>
<path d="M43050 8340 c-8 -5 -10 -10 -5 -10 6 0 17 5 25 10 8 5 11 10 5 10 -5
0 -17 -5 -25 -10z"/>
<path d="M43063 8309 c-4 -16 -8 -17 -14 -7 -6 9 -9 7 -9 -9 0 -35 20 -37 26
-3 5 21 11 29 21 26 8 -3 11 -1 8 4 -10 17 -27 11 -32 -11z"/>
<path d="M42930 8280 c12 -12 18 -26 14 -33 -4 -7 -3 -8 2 -4 19 17 1 57 -25
57 -6 0 -2 -9 9 -20z"/>
<path d="M43080 8293 c0 -5 7 -17 15 -27 15 -20 20 -10 9 18 -6 16 -24 22 -24
9z"/>
<path d="M43064 8246 c-3 -9 -11 -13 -17 -9 -5 3 -7 1 -4 -4 12 -18 66 -21 72
-4 3 8 3 12 -1 8 -4 -4 -16 0 -25 9 -17 15 -19 15 -25 0z"/>
<path d="M42998 8205 c5 -39 18 -36 24 5 2 16 -2 26 -13 28 -12 2 -14 -5 -11
-33z"/>
<path d="M42947 8146 c-5 -12 -1 -13 17 -6 15 5 27 5 34 -2 8 -8 15 -8 25 0 8
7 17 9 20 5 4 -3 7 -2 7 4 0 17 -97 16 -103 -1z"/>
<path d="M43052 8127 l-11 -32 20 28 c17 22 24 25 35 16 11 -9 14 -8 14 3 0 7
-10 14 -23 16 -17 1 -26 -6 -35 -31z"/>
<path d="M42980 8115 c0 -8 5 -15 10 -15 6 0 10 7 10 15 0 8 -4 15 -10 15 -5
0 -10 -7 -10 -15z"/>
<path d="M42947 8100 c-3 -13 -10 -18 -21 -14 -11 4 -16 0 -16 -14 0 -12 -9
-27 -21 -35 -11 -8 -16 -18 -11 -21 5 -3 15 1 22 9 7 8 20 15 29 15 9 0 24 7
34 14 15 12 16 16 3 40 -13 25 -14 25 -19 6z m7 -25 c-7 -18 -20 -19 -30 -3
-4 6 -3 8 4 4 6 -3 13 -2 17 4 9 15 15 12 9 -5z"/>
<path d="M42945 8020 c3 -5 8 -10 11 -10 2 0 4 5 4 10 0 6 -5 10 -11 10 -5 0
-7 -4 -4 -10z"/>
<path d="M42850 8011 c0 -7 -4 -10 -9 -6 -5 3 -12 1 -15 -3 -3 -5 5 -9 17 -9
12 0 29 -2 37 -6 8 -3 31 -8 51 -11 21 -4 43 -13 49 -21 11 -13 10 -14 -4 -9
-11 4 -16 2 -14 -7 2 -9 -11 -15 -39 -19 -48 -7 -64 -17 -45 -29 7 -4 11 -14
9 -22 -2 -8 -2 -11 0 -6 3 4 8 5 12 3 4 -3 13 0 21 6 12 8 12 9 -2 4 -17 -5
-26 8 -10 17 4 2 0 2 -8 0 -12 -3 -12 -2 -3 8 10 10 16 9 31 -4 16 -15 21 -15
30 -4 7 8 8 18 4 22 -4 5 1 5 11 2 10 -4 16 -3 13 2 -3 4 5 19 17 31 15 17 17
22 5 17 -10 -3 -22 1 -30 11 -12 15 -11 16 5 3 12 -9 17 -10 17 -2 0 7 5 9 11
5 7 -4 10 -1 7 7 -3 10 -17 13 -44 10 -77 -8 -89 -7 -106 7 -13 11 -18 12 -18
3z"/>
<path d="M42910 8010 c0 -5 5 -10 10 -10 6 0 10 5 10 10 0 6 -4 10 -10 10 -5
0 -10 -4 -10 -10z"/>
<path d="M42860 7963 c0 -5 12 -13 26 -20 22 -10 25 -10 20 3 -3 9 -6 18 -6
20 0 2 -9 4 -20 4 -11 0 -20 -3 -20 -7z"/>
<path d="M42714 7919 c-3 -6 -3 -13 0 -16 3 -4 6 -1 6 5 0 6 7 9 15 6 8 -4 15
-4 15 -1 0 11 -30 16 -36 6z"/>
<path d="M42667 7874 c4 -11 -53 -28 -66 -19 -4 2 -8 -1 -8 -8 0 -7 9 -13 19
-13 10 0 18 4 18 8 0 4 9 8 19 8 10 0 29 8 40 18 l22 17 -24 0 c-14 0 -23 -5
-20 -11z"/>
<path d="M42750 7865 c7 -8 16 -12 21 -9 13 8 1 24 -18 24 -13 0 -13 -3 -3
-15z"/>
<path d="M42710 7861 c0 -5 -17 -14 -37 -20 l-38 -10 36 4 c27 4 40 0 53 -14
10 -11 24 -17 32 -14 10 4 12 0 8 -12 -5 -12 -2 -16 10 -14 9 2 16 8 16 13 -1
5 5 13 14 18 18 10 21 28 5 28 -5 0 -7 -5 -3 -11 4 -7 0 -9 -12 -5 -11 3 -26
1 -34 -4 -18 -11 -51 16 -43 36 3 8 2 14 -1 14 -3 0 -6 -4 -6 -9z"/>
<path d="M42541 7815 c-17 -19 -27 -35 -22 -35 6 0 9 -6 7 -12 -1 -7 -1 -10 1
-5 3 4 12 7 21 7 12 0 13 3 4 12 -16 16 -15 31 1 22 6 -4 9 -3 4 1 -4 5 0 17
10 27 9 10 14 18 11 18 -3 0 -19 -16 -37 -35z"/>
<path d="M42590 7790 c-12 -8 -12 -10 5 -9 11 0 29 4 40 9 18 8 18 9 -5 9 -14
0 -32 -4 -40 -9z"/>
<path d="M42721 7758 c-13 -20 -12 -22 1 -11 8 7 18 10 22 6 4 -4 4 0 0 10 -8
21 -6 21 -23 -5z"/>
<path d="M42554 7752 c3 -5 0 -13 -6 -15 -10 -4 -9 -8 2 -16 8 -6 20 -11 25
-11 6 0 4 4 -4 9 -7 5 -11 13 -7 19 3 6 1 14 -5 18 -7 4 -9 3 -5 -4z"/>
<path d="M42590 7740 c0 -5 7 -10 16 -10 8 0 12 5 9 10 -3 6 -10 10 -16 10 -5
0 -9 -4 -9 -10z"/>
<path d="M42420 7705 c0 -8 7 -11 20 -8 11 3 20 8 20 12 0 4 -9 7 -20 8 -11 1
-20 -4 -20 -12z"/>
<path d="M42334 7699 c-4 -8 -3 -10 4 -5 7 4 12 3 12 -3 0 -5 -6 -12 -12 -14
-7 -3 -2 -4 12 -3 29 2 50 13 50 25 0 4 -6 8 -14 8 -9 0 -12 -7 -8 -16 4 -13
2 -13 -15 2 -16 14 -23 15 -29 6z"/>
<path d="M42290 7675 c-7 -9 -11 -17 -9 -20 3 -2 10 5 17 15 14 24 10 26 -8 5z"/>
<path d="M42480 7681 c0 -5 7 -12 16 -15 22 -9 24 -8 24 9 0 8 -9 15 -20 15
-11 0 -20 -4 -20 -9z"/>
<path d="M42561 7673 c3 -20 -2 -27 -10 -14 -8 12 -12 12 -24 3 -8 -7 -20 -11
-27 -10 -7 2 -14 -3 -15 -10 -2 -7 -1 -8 1 -3 3 6 14 7 29 1 20 -8 23 -7 18 8
-6 14 -4 15 9 4 12 -10 18 -10 27 2 8 10 9 16 1 21 -6 4 -10 3 -9 -2z"/>
<path d="M42255 7640 c-3 -5 -1 -10 4 -10 6 0 11 5 11 10 0 6 -2 10 -4 10 -3
0 -8 -4 -11 -10z"/>
<path d="M42226 7623 c-6 -14 -5 -15 5 -6 7 7 10 15 7 18 -3 3 -9 -2 -12 -12z"/>
<path d="M42147 7583 c-10 -9 -9 -23 1 -23 5 0 9 7 9 15 0 17 -1 18 -10 8z"/>
<path d="M42398 7579 c-10 -5 -18 -15 -18 -22 0 -9 3 -8 9 1 4 7 14 12 21 10
7 -2 15 3 17 10 6 14 -6 15 -29 1z"/>
<path d="M42080 7545 c-12 -14 -7 -20 14 -16 5 1 13 -4 17 -11 7 -10 9 -10 9
0 0 7 -7 15 -16 19 -13 5 -13 7 -2 14 8 5 9 9 2 9 -6 0 -17 -7 -24 -15z"/>
<path d="M42323 7535 c-1 -11 1 -14 4 -7 3 6 11 12 18 12 8 0 16 3 18 8 3 4
-5 7 -17 7 -15 0 -22 -6 -23 -20z"/>
<path d="M42246 7499 c3 -5 10 -7 15 -4 5 4 9 1 9 -4 0 -6 -4 -11 -10 -11 -5
0 -10 -5 -10 -11 0 -8 5 -7 15 1 19 16 15 32 -8 36 -9 1 -15 -2 -11 -7z"/>
<path d="M41974 7489 c-3 -6 -3 -13 0 -16 3 -4 6 -1 6 5 0 6 7 9 15 6 8 -4 15
-4 15 -1 0 11 -30 16 -36 6z"/>
<path d="M42181 7466 c-10 -12 -8 -13 11 -8 21 5 22 4 8 -14 -14 -17 -14 -18
2 -6 9 8 14 20 11 28 -7 18 -17 18 -32 0z"/>
<path d="M41936 7452 c-3 -5 1 -9 9 -9 8 0 15 4 15 9 0 4 -4 8 -9 8 -6 0 -12
-4 -15 -8z"/>
<path d="M41970 7451 c0 -6 4 -13 10 -16 6 -3 7 1 4 9 -7 18 -14 21 -14 7z"/>
<path d="M42083 7405 c0 -8 3 -13 5 -10 3 3 12 -1 20 -8 11 -8 14 -8 9 0 -4 6
-4 13 0 16 5 2 2 2 -4 1 -7 -2 -13 1 -13 6 0 6 -4 10 -8 10 -5 0 -9 -7 -9 -15z"/>
<path d="M41986 7402 c-2 -4 -1 -14 5 -22 7 -12 9 -10 9 8 0 23 -5 28 -14 14z"/>
<path d="M41790 7382 c-21 -17 -21 -19 -6 -25 11 -4 15 -3 11 4 -4 6 1 17 11
24 11 8 16 15 13 15 -4 0 -17 -8 -29 -18z"/>
<path d="M41815 7369 c-4 -6 -5 -12 -2 -15 2 -3 7 2 10 11 7 17 1 20 -8 4z"/>
<path d="M41996 7335 c4 -9 11 -14 16 -13 15 5 11 23 -6 26 -11 2 -14 -2 -10
-13z"/>
<path d="M41715 7300 c3 -5 11 -10 16 -10 6 0 7 5 4 10 -3 6 -11 10 -16 10 -6
0 -7 -4 -4 -10z"/>
<path d="M41956 7298 c3 -5 10 -6 15 -3 13 9 11 12 -6 12 -8 0 -12 -4 -9 -9z"/>
<path d="M41666 7289 c2 -4 -2 -9 -8 -12 -7 -3 -4 -5 8 -4 22 1 30 24 8 24 -7
0 -11 -4 -8 -8z"/>
<path d="M41850 7266 c0 -2 8 -10 18 -17 15 -13 16 -12 3 4 -13 16 -21 21 -21
13z"/>
<path d="M41525 7230 c-16 -11 -25 -20 -20 -20 10 0 64 39 55 40 -3 0 -18 -9
-35 -20z"/>
<path d="M41712 7186 c4 -5 2 -16 -5 -25 -11 -14 -10 -15 7 -1 11 8 22 14 25
12 3 -2 6 1 8 8 1 7 0 7 -4 0 -3 -7 -10 -7 -21 2 -10 7 -14 8 -10 4z"/>
<path d="M41300 7089 c0 -5 5 -7 10 -4 6 3 10 8 10 11 0 2 -4 4 -10 4 -5 0
-10 -5 -10 -11z"/>
<path d="M41265 7071 c-3 -5 0 -13 6 -17 7 -4 9 -3 5 4 -3 5 0 13 6 15 9 4 10
6 1 6 -6 1 -14 -3 -18 -8z"/>
<path d="M41527 7066 c-3 -8 -2 -18 3 -21 13 -8 20 9 11 24 -6 10 -10 9 -14
-3z"/>
<path d="M41556 7068 c3 -5 10 -6 15 -3 13 9 11 12 -6 12 -8 0 -12 -4 -9 -9z"/>
<path d="M41370 7020 c8 -5 10 -10 4 -10 -6 0 -11 -7 -11 -15 0 -8 4 -12 8 -9
4 2 9 0 11 -5 1 -5 12 -3 23 6 16 12 16 14 3 10 -10 -3 -20 -2 -23 3 -4 6 0
10 7 10 9 0 9 3 -2 10 -8 5 -19 10 -25 10 -5 0 -3 -5 5 -10z"/>
<path d="M41444 7019 c-8 -14 13 -18 30 -6 16 12 16 13 -4 13 -12 0 -23 -4
-26 -7z"/>
<path d="M41156 6994 c-11 -8 -16 -14 -10 -14 13 0 39 18 34 24 -3 2 -14 -2
-24 -10z"/>
<path d="M41096 6971 c-4 -5 -2 -12 3 -15 5 -4 12 -2 15 3 4 5 2 12 -3 15 -5
4 -12 2 -15 -3z"/>
<path d="M41157 6963 c-3 -5 6 -9 20 -10 19 -1 22 1 12 8 -17 11 -26 11 -32 2z"/>
<path d="M40967 6879 c7 -7 15 -10 18 -7 3 3 -2 9 -12 12 -14 6 -15 5 -6 -5z"/>
<path d="M40865 6811 c-3 -5 -2 -12 3 -15 5 -3 9 1 9 9 0 17 -3 19 -12 6z"/>
<path d="M40826 6802 c-3 -5 1 -9 9 -9 8 0 12 4 9 9 -3 4 -7 8 -9 8 -2 0 -6
-4 -9 -8z"/>
<path d="M40995 6781 c-3 -5 -2 -12 3 -15 5 -3 9 1 9 9 0 17 -3 19 -12 6z"/>
<path d="M41023 6765 c0 -8 4 -12 9 -9 5 3 6 10 3 15 -9 13 -12 11 -12 -6z"/>
<path d="M40617 6683 c3 -7 6 -13 8 -13 2 0 5 6 8 13 3 8 -1 14 -8 14 -7 0
-11 -6 -8 -14z"/>
<path d="M40535 6651 c-3 -5 -2 -12 3 -15 5 -3 9 1 9 9 0 17 -3 19 -12 6z"/>
<path d="M40460 6450 c-9 -6 -10 -10 -3 -10 6 0 15 5 18 10 8 12 4 12 -15 0z"/>
<path d="M40147 6409 c7 -7 15 -10 18 -7 3 3 -2 9 -12 12 -14 6 -15 5 -6 -5z"/>
<path d="M40050 6360 c-9 -6 -10 -10 -3 -10 6 0 15 5 18 10 8 12 4 12 -15 0z"/>
<path d="M40027 6333 c6 -16 5 -17 -13 -3 -15 11 -16 11 -7 0 7 -8 20 -15 28
-16 12 -2 13 2 5 17 -13 24 -22 25 -13 2z"/>
<path d="M40176 6302 c-3 -4 4 -9 15 -9 23 -2 25 3 4 10 -8 4 -16 3 -19 -1z"/>
<path d="M40023 6189 c-2 -23 3 -25 10 -4 4 8 3 16 -1 19 -4 3 -9 -4 -9 -15z"/>
<path d="M46190 12466 c-76 -17 -156 -44 -215 -73 -38 -19 -619 -352 -705
-404 -15 -9 -476 -274 -540 -311 -30 -17 -388 -224 -438 -253 -37 -22 -114
-66 -268 -155 -107 -61 -167 -102 -178 -120 -20 -35 -21 -82 -1 -120 16 -30
39 -46 231 -154 38 -22 94 -54 124 -72 393 -232 1737 -1003 1797 -1031 120
-55 228 -77 383 -77 155 0 263 22 383 77 40 18 249 136 465 261 216 125 398
224 404 220 6 -4 8 -3 5 3 -8 12 570 346 585 337 7 -4 8 -3 4 4 -7 11 66 56
92 57 7 0 16 5 20 12 4 6 34 27 67 46 33 19 99 57 147 85 66 38 89 47 98 38
10 -8 11 -8 6 1 -4 8 9 22 33 38 33 22 43 25 61 15 12 -6 24 -9 28 -6 3 3 0 6
-7 6 -7 0 -9 4 -6 10 3 6 -1 7 -9 4 -28 -11 -17 5 14 21 17 9 30 12 30 8 0 -5
6 -1 13 8 7 8 31 26 54 39 48 26 66 61 62 117 -2 21 1 45 6 52 5 9 4 12 -3 7
-6 -3 -13 -2 -17 4 -3 5 -1 11 4 11 26 3 30 4 37 11 7 8 -31 2 -45 -6 -5 -3
-19 2 -32 12 -13 10 -32 21 -41 25 -20 7 -25 37 -6 37 6 0 8 3 4 7 -4 5 -13 0
-20 -9 -12 -16 -15 -16 -32 -2 -10 9 -13 12 -5 8 9 -5 12 -3 7 5 -4 6 -12 9
-17 5 -5 -3 -17 0 -25 7 -9 7 -21 14 -28 15 -24 3 -126 71 -118 79 4 5 2 5 -5
2 -6 -4 -59 21 -118 54 -78 45 -105 65 -100 77 4 11 2 12 -8 4 -10 -9 -24 -5
-58 16 -24 15 -65 39 -91 52 -27 14 -48 28 -48 32 0 5 -5 8 -11 8 -5 0 -302
169 -659 375 -357 206 -675 387 -707 403 -70 35 -168 67 -247 81 -79 14 -287
12 -356 -3z"/>
<path d="M48579 11542 c9 -7 10 -11 2 -15 -7 -4 -8 -5 -1 -3 16 2 14 20 -2 24
-10 3 -10 2 1 -6z"/>
<path d="M48535 11421 c-3 -5 -2 -12 3 -15 5 -3 9 1 9 9 0 17 -3 19 -12 6z"/>
<path d="M48570 11406 c0 -2 7 -7 16 -10 8 -3 12 -2 9 4 -6 10 -25 14 -25 6z"/>
<path d="M48656 11338 c3 -5 10 -6 15 -3 13 9 11 12 -6 12 -8 0 -12 -4 -9 -9z"/>
<path d="M48696 11341 c-4 -5 -2 -12 3 -15 5 -4 12 -2 15 3 4 5 2 12 -3 15 -5
4 -12 2 -15 -3z"/>
<path d="M48963 11315 c0 -8 4 -12 9 -9 7 5 12 -10 9 -28 0 -5 3 -8 8 -8 5 0
8 11 7 24 0 13 -3 22 -5 20 -2 -2 -9 1 -16 6 -8 7 -12 5 -12 -5z"/>
<path d="M48865 11261 c-3 -5 -2 -12 3 -15 5 -3 9 1 9 9 0 17 -3 19 -12 6z"/>
<path d="M48840 11236 c0 -2 7 -7 16 -10 8 -3 12 -2 9 4 -6 10 -25 14 -25 6z"/>
<path d="M48947 11145 c-4 -8 -3 -16 1 -19 4 -3 9 4 9 15 2 23 -3 25 -10 4z"/>
<path d="M49044 11115 c0 -24 4 -41 8 -39 9 6 8 73 -1 79 -4 2 -7 -16 -7 -40z"/>
<path d="M49062 11069 c-7 -10 -8 -19 -3 -19 13 0 33 28 23 33 -4 3 -13 -3
-20 -14z"/>
<path d="M49017 11033 c-4 -3 -7 -12 -7 -20 0 -15 26 -18 34 -4 7 11 -18 33
-27 24z"/>
<path d="M48916 11005 c-3 -8 -21 -25 -41 -36 -32 -19 -48 -49 -25 -49 5 0 6
8 3 17 -5 13 -2 15 11 10 10 -4 15 -3 11 3 -3 5 7 7 25 5 17 -2 28 0 25 6 -4
5 -1 9 5 9 6 0 9 4 6 9 -4 5 -1 11 5 13 7 2 6 8 -4 16 -12 10 -16 10 -21 -3z
m8 -19 c-3 -8 -13 -17 -22 -21 -13 -5 -13 -2 3 15 21 24 26 25 19 6z"/>
<path d="M49044 10970 c0 -13 4 -16 10 -10 7 7 7 13 0 20 -6 6 -10 3 -10 -10z"/>
<path d="M48885 10841 c-3 -7 0 -8 10 -5 11 4 14 2 9 -9 -7 -20 8 -29 26 -15
12 8 12 9 -3 4 -13 -4 -17 -1 -15 11 3 18 -17 29 -27 14z"/>
<path d="M48845 10779 c-4 -6 -5 -12 -2 -15 2 -3 7 2 10 11 7 17 1 20 -8 4z"/>
<path d="M10115 10640 c-168 -27 -207 -46 -761 -366 -263 -152 -551 -318 -639
-369 -88 -51 -205 -118 -260 -150 -343 -199 -418 -242 -490 -282 -44 -25 -84
-49 -90 -53 -5 -4 -32 -20 -60 -35 -68 -37 -93 -62 -104 -102 -11 -39 2 -86
30 -114 11 -11 65 -45 121 -78 57 -32 164 -93 238 -136 74 -43 176 -101 225
-130 358 -206 510 -294 580 -335 78 -46 365 -212 455 -262 25 -14 140 -81 255
-148 313 -183 388 -210 607 -217 158 -6 256 9 383 60 44 18 261 137 483 265
221 128 408 230 414 226 6 -4 8 -3 5 3 -3 5 35 33 86 62 51 29 99 56 107 61 8
5 188 109 400 231 212 123 395 229 408 237 17 11 22 12 20 2 -2 -7 4 -14 13
-15 9 -2 16 3 16 11 0 7 -4 11 -9 8 -4 -3 -8 -1 -8 5 0 13 55 42 64 34 3 -4 6
-1 6 5 0 16 58 44 72 36 7 -5 8 -3 3 6 -6 10 -4 12 8 7 10 -4 16 -2 14 6 -1 7
6 11 15 11 10 -1 15 2 12 7 -7 12 3 11 28 -2 13 -7 18 -7 14 -1 -3 6 -1 12 6
15 7 2 2 2 -12 0 l-25 -5 28 29 c15 16 27 35 27 42 0 8 8 10 23 6 19 -5 19 -4
5 5 -13 8 -17 21 -14 56 2 25 0 40 -4 34 -6 -9 -12 -6 -21 11 -7 13 -13 27
-14 31 0 3 -4 10 -9 15 -5 5 -6 3 -2 -4 4 -7 3 -13 -2 -13 -13 0 -43 35 -37
43 3 4 0 3 -7 -2 -7 -7 -26 -1 -57 16 -25 15 -48 30 -51 33 -3 3 -26 16 -52
29 -26 14 -44 29 -41 34 3 6 1 7 -5 3 -12 -7 -49 13 -50 27 0 5 -4 12 -8 15
-4 4 -3 1 1 -7 6 -10 4 -13 -6 -9 -8 3 -412 236 -898 517 -487 281 -910 520
-940 532 -153 57 -353 81 -496 59z"/>
<path d="M12326 9771 c-4 -5 -2 -12 3 -15 5 -4 12 -2 15 3 4 5 2 12 -3 15 -5
4 -12 2 -15 -3z"/>
<path d="M12444 9568 c-4 -7 -4 -10 1 -6 4 4 15 2 24 -5 14 -11 14 -10 2 6
-16 20 -18 21 -27 5z"/>
<path d="M12825 9470 c17 -11 39 -20 50 -21 13 -1 10 -4 -10 -9 -24 -6 -26 -8
-7 -9 13 -1 22 -8 23 -18 1 -12 4 -10 9 7 8 25 8 25 9 -5 1 -27 31 -83 31 -59
0 6 -5 15 -11 21 -6 6 -9 21 -7 34 3 23 -37 79 -56 79 -5 0 -1 -7 10 -15 14
-11 15 -14 4 -14 -8 0 -24 6 -34 14 -11 8 -25 15 -30 15 -6 0 3 -9 19 -20z"/>
<path d="M12733 9422 c-9 -5 -6 -12 10 -21 21 -13 21 -13 7 4 -14 17 -13 18 3
12 11 -4 16 -3 12 3 -7 12 -16 12 -32 2z"/>
<path d="M12920 9411 c0 -6 4 -13 10 -16 6 -3 7 1 4 9 -7 18 -14 21 -14 7z"/>
<path d="M12886 9367 c3 -10 9 -15 12 -12 3 3 0 11 -7 18 -10 9 -11 8 -5 -6z"/>
<path d="M12790 9361 c0 -6 4 -13 10 -16 6 -3 7 1 4 9 -7 18 -14 21 -14 7z"/>
<path d="M12855 9299 c-4 -11 -4 -23 -1 -26 3 -3 -2 -12 -12 -20 -15 -13 -15
-13 8 -7 23 6 24 6 10 -11 -13 -16 -13 -18 0 -13 8 2 16 17 17 32 1 14 -2 24
-8 21 -12 -8 -12 2 1 26 7 12 7 19 1 19 -5 0 -13 -9 -16 -21z"/>
<path d="M12963 9214 c0 -23 1 -24 9 -10 7 12 7 21 0 28 -6 6 -9 0 -9 -18z"/>
<path d="M12885 9100 c-3 -6 1 -7 9 -4 18 7 21 14 7 14 -6 0 -13 -4 -16 -10z"/>
<path d="M12895 9080 c-17 -8 -16 -8 8 -7 15 1 27 5 27 9 0 10 -9 9 -35 -2z"/>
<path d="M12696 9061 c-19 -7 -19 -8 0 -13 13 -3 21 0 21 8 0 8 -1 14 -1 13
-1 0 -10 -4 -20 -8z"/>
<path d="M12891 9044 c0 -11 3 -14 6 -6 3 7 2 16 -1 19 -3 4 -6 -2 -5 -13z"/>
<path d="M12779 8980 c-13 -10 -18 -19 -11 -20 6 0 12 5 12 11 0 6 6 9 13 6 8
-3 14 1 14 9 0 18 0 18 -28 -6z"/>
<path d="M12695 8940 c-3 -5 -1 -10 4 -10 6 0 11 5 11 10 0 6 -2 10 -4 10 -3
0 -8 -4 -11 -10z"/>
<path d="M49615 7376 c-79 -21 -79 -21 -556 -297 -250 -144 -519 -300 -599
-346 -80 -46 -151 -90 -158 -97 -21 -20 -5 -39 71 -82 40 -22 142 -81 227
-131 85 -49 175 -101 200 -115 25 -14 139 -81 254 -147 116 -67 233 -135 260
-150 28 -16 87 -50 131 -75 121 -70 195 -90 318 -84 65 3 119 12 147 23 25 10
192 103 373 207 182 105 332 186 339 182 7 -4 8 -3 4 4 -8 14 30 36 46 26 6
-4 8 -3 5 3 -6 10 155 106 179 106 7 0 11 3 9 7 -2 4 8 13 23 21 15 8 47 26
72 42 24 15 51 25 58 22 7 -2 10 0 7 5 -3 6 2 13 12 17 10 4 46 25 81 46 55
35 65 47 61 73 0 4 5 11 13 15 9 6 9 9 1 9 -6 0 -10 9 -8 19 2 11 -2 22 -9 24
-7 3 -13 -1 -13 -9 0 -8 3 -14 7 -14 4 0 7 -7 7 -15 0 -8 -7 -15 -14 -15 -8 0
-11 4 -8 10 3 5 0 7 -9 4 -8 -3 -25 5 -37 17 -13 13 -30 24 -39 24 -8 1 -32
13 -53 28 -21 14 -47 29 -58 32 -11 4 -16 11 -13 17 5 7 2 8 -5 4 -7 -5 -20
-2 -29 6 -9 7 -26 18 -37 24 -109 59 -295 168 -295 173 0 4 -6 8 -12 8 -7 0
-148 78 -313 174 -165 95 -325 182 -355 193 -69 24 -216 31 -285 12z"/>
<path d="M51130 6856 c0 -2 7 -7 16 -10 8 -3 12 -2 9 4 -6 10 -25 14 -25 6z"/>
<path d="M51288 6734 c6 -3 12 -16 12 -29 0 -13 5 -27 10 -30 6 -3 10 -14 10
-23 0 -11 8 -18 19 -18 18 0 17 2 -5 25 -23 22 -34 59 -15 47 5 -4 8 1 7 11
-2 9 -13 17 -27 19 -13 2 -18 0 -11 -2z"/>
<path d="M51288 6653 c-3 -12 0 -20 8 -20 16 0 17 6 5 25 -6 11 -9 9 -13 -5z"/>
<path d="M51174 6572 c3 -5 0 -13 -6 -15 -9 -4 -10 -6 -1 -6 17 -1 25 16 12
25 -7 4 -9 3 -5 -4z"/>
<path d="M51273 6523 c-7 -2 -13 -8 -13 -13 0 -13 29 -20 36 -8 4 7 3 8 -4 4
-7 -4 -12 -3 -12 3 0 5 8 12 18 14 11 3 12 5 2 5 -8 0 -21 -2 -27 -5z"/>
<path d="M51077 6489 c7 -7 15 -10 18 -7 3 3 -2 9 -12 12 -14 6 -15 5 -6 -5z"/>
<path d="M51238 6458 c6 -6 18 -8 28 -6 14 3 12 5 -9 10 -19 3 -25 2 -19 -4z"/>
<path d="M51075 6350 c-4 -6 -10 -8 -15 -5 -5 3 -11 1 -14 -4 -8 -13 22 -7 36
7 7 7 9 12 6 12 -4 0 -10 -5 -13 -10z"/>
</g>
</svg>
