<?xml version="1.0" encoding="UTF-8"?>
<svg xmlns="http://www.w3.org/2000/svg" xmlns:xlink="http://www.w3.org/1999/xlink" width="100px" height="100px" viewBox="0 0 100 100" version="1.1">
<g id="surface1">
<path style=" stroke:none;fill-rule:nonzero;fill:rgb(14.901961%,30.196078%,89.411765%);fill-opacity:1;" d="M 99.925781 19.652344 L 90.824219 91.957031 L 49.902344 100 L 9.09375 91.96875 L 0 19.652344 Z M 99.925781 19.652344 "/>
<path style=" stroke:none;fill-rule:nonzero;fill:rgb(16.078431%,39.607843%,94.509804%);fill-opacity:1;" d="M 83.03125 87.351562 L 90.808594 25.566406 L 49.964844 25.566406 L 49.964844 93.851562 Z M 83.03125 87.351562 "/>
<path style=" stroke:none;fill-rule:nonzero;fill:rgb(92.156863%,92.156863%,92.156863%);fill-opacity:1;" d="M 20.847656 52.386719 L 21.96875 61.253906 L 49.964844 61.253906 L 49.964844 52.386719 Z M 20.847656 52.386719 "/>
<path style=" stroke:none;fill-rule:nonzero;fill:rgb(92.156863%,92.156863%,92.156863%);fill-opacity:1;" d="M 49.964844 34.433594 L 18.59375 34.433594 L 19.730469 43.304688 L 49.964844 43.304688 Z M 49.964844 34.433594 "/>
<path style=" stroke:none;fill-rule:nonzero;fill:rgb(92.156863%,92.156863%,92.156863%);fill-opacity:1;" d="M 49.964844 84.648438 L 49.964844 75.421875 L 49.910156 75.429688 L 35.976562 72.761719 L 35.085938 65.691406 L 22.527344 65.691406 L 24.28125 79.617188 L 49.90625 84.660156 Z M 49.964844 84.648438 "/>
<path style=" stroke:none;fill-rule:nonzero;fill:rgb(0%,0%,0%);fill-opacity:1;" d="M 23.515625 0 L 38.667969 0 L 38.667969 4.492188 L 29.851562 4.492188 L 29.851562 8.984375 L 38.667969 8.984375 L 38.667969 13.476562 L 23.515625 13.476562 Z M 23.515625 0 "/>
<path style=" stroke:none;fill-rule:nonzero;fill:rgb(0%,0%,0%);fill-opacity:1;" d="M 41.699219 0 L 56.851562 0 L 56.851562 3.90625 L 48.035156 3.90625 L 48.035156 4.6875 L 56.851562 4.6875 L 56.851562 13.671875 L 41.699219 13.671875 L 41.699219 9.570312 L 50.515625 9.570312 L 50.515625 8.789062 L 41.699219 8.789062 Z M 41.699219 0 "/>
<path style=" stroke:none;fill-rule:nonzero;fill:rgb(0%,0%,0%);fill-opacity:1;" d="M 59.878906 0 L 75.03125 0 L 75.03125 3.90625 L 66.21875 3.90625 L 66.21875 4.6875 L 75.03125 4.6875 L 75.03125 13.671875 L 59.878906 13.671875 L 59.878906 9.570312 L 68.695312 9.570312 L 68.695312 8.789062 L 59.878906 8.789062 Z M 59.878906 0 "/>
<path style=" stroke:none;fill-rule:nonzero;fill:rgb(100%,100%,100%);fill-opacity:1;" d="M 65.324219 61.253906 L 63.871094 72.757812 L 49.921875 75.429688 L 49.921875 84.65625 L 75.566406 79.617188 L 75.753906 78.117188 L 78.695312 54.769531 L 79 52.386719 L 81.257812 34.433594 L 49.921875 34.433594 L 49.921875 43.304688 L 67.546875 43.304688 L 66.410156 52.386719 L 49.921875 52.386719 L 49.921875 61.253906 Z M 65.324219 61.253906 "/>
</g>
</svg>
