<?xml version="1.0" encoding="UTF-8"?>
<svg xmlns="http://www.w3.org/2000/svg" xmlns:xlink="http://www.w3.org/1999/xlink" width="100px" height="100px" viewBox="0 0 100 100" version="1.1">
<defs>
<clipPath id="clip1">
  <path d="M 0 0.121094 L 99.878906 0.121094 L 99.878906 100 L 0 100 Z M 0 0.121094 "/>
</clipPath>
</defs>
<g id="surface1">
<g clip-path="url(#clip1)" clip-rule="nonzero">
<path style=" stroke:none;fill-rule:nonzero;fill:rgb(94.117647%,23.529412%,18.039216%);fill-opacity:1;" d="M 97.996094 45.613281 L 54.386719 2.007812 C 51.875 -0.503906 47.800781 -0.503906 45.285156 2.007812 L 36.234375 11.066406 L 47.71875 22.550781 C 50.472656 21.613281 53.519531 22.324219 55.578125 24.378906 C 57.648438 26.453125 58.351562 29.523438 57.390625 32.289062 L 68.464844 43.359375 C 71.234375 42.398438 74.304688 43.105469 76.375 45.175781 C 79.363281 48.164062 79.363281 53.011719 76.375 56 C 73.382812 58.988281 68.535156 58.988281 65.542969 56 C 63.363281 53.8125 62.707031 50.53125 63.882812 47.675781 L 53.558594 37.351562 L 53.558594 64.523438 C 55.769531 65.613281 57.316406 67.707031 57.71875 70.136719 C 58.121094 72.570312 57.324219 75.050781 55.578125 76.792969 C 52.589844 79.78125 47.746094 79.78125 44.757812 76.792969 C 41.765625 73.804688 41.765625 68.957031 44.757812 65.96875 C 45.472656 65.253906 46.324219 64.683594 47.261719 64.296875 L 47.261719 36.875 C 45.375 36.101562 43.878906 34.605469 43.097656 32.71875 C 42.320312 30.835938 42.324219 28.71875 43.109375 26.839844 L 31.785156 15.511719 L 1.878906 45.410156 C -0.628906 47.921875 -0.628906 51.996094 1.878906 54.507812 L 45.492188 98.121094 C 48.003906 100.628906 52.074219 100.628906 54.589844 98.121094 L 97.996094 54.714844 C 100.503906 52.199219 100.503906 48.128906 97.996094 45.613281 "/>
</g>
</g>
</svg>
