<?xml version="1.0" encoding="UTF-8"?>
<svg xmlns="http://www.w3.org/2000/svg" xmlns:xlink="http://www.w3.org/1999/xlink" width="100px" height="100px" viewBox="0 0 100 100" version="1.1">
<g id="surface1">
<path style=" stroke:none;fill-rule:evenodd;fill:rgb(14.117647%,16.078431%,18.431373%);fill-opacity:1;" d="M 49.851562 0 C 22.285156 0 0 22.917969 0 51.269531 C 0 73.929688 14.277344 93.113281 34.085938 99.902344 C 36.5625 100.414062 37.46875 98.800781 37.46875 97.441406 C 37.46875 96.253906 37.390625 92.179688 37.390625 87.933594 C 23.519531 90.992188 20.632812 81.824219 20.632812 81.824219 C 18.40625 75.882812 15.101562 74.355469 15.101562 74.355469 C 10.5625 71.214844 15.433594 71.214844 15.433594 71.214844 C 20.46875 71.554688 23.109375 76.476562 23.109375 76.476562 C 27.566406 84.285156 34.746094 82.078125 37.636719 80.722656 C 38.046875 77.410156 39.371094 75.117188 40.773438 73.847656 C 29.710938 72.65625 18.074219 68.242188 18.074219 48.550781 C 18.074219 42.949219 20.054688 38.367188 23.191406 34.800781 C 22.695312 33.527344 20.964844 28.265625 23.6875 21.21875 C 23.6875 21.21875 27.898438 19.863281 37.386719 26.480469 C 41.449219 25.359375 45.640625 24.789062 49.851562 24.785156 C 54.058594 24.785156 58.351562 25.378906 62.3125 26.480469 C 71.804688 19.863281 76.015625 21.21875 76.015625 21.21875 C 78.738281 28.265625 77.003906 33.527344 76.507812 34.800781 C 79.730469 38.367188 81.625 42.949219 81.625 48.550781 C 81.625 68.242188 69.988281 72.570312 58.847656 73.847656 C 60.664062 75.457031 62.230469 78.511719 62.230469 83.351562 C 62.230469 90.226562 62.148438 95.746094 62.148438 97.441406 C 62.148438 98.800781 63.058594 100.414062 65.53125 99.902344 C 85.339844 93.113281 99.621094 73.929688 99.621094 51.269531 C 99.699219 22.917969 77.335938 0 49.851562 0 Z M 49.851562 0 "/>
</g>
</svg>
