<?xml version="1.0" encoding="UTF-8"?>
<svg xmlns="http://www.w3.org/2000/svg" xmlns:xlink="http://www.w3.org/1999/xlink" width="100px" height="100px" viewBox="0 0 100 100" version="1.1">
<g id="surface1">
<path style=" stroke:none;fill-rule:nonzero;fill:rgb(90.196078%,63.921569%,16.078431%);fill-opacity:1;" d="M 99.445312 19.523438 L 0 19.523438 L 9.324219 91.476562 L 49.71875 99.628906 L 90.113281 91.476562 Z M 99.445312 19.523438 "/>
<path style=" stroke:none;fill-rule:nonzero;fill:rgb(94.509804%,74.901961%,13.333333%);fill-opacity:1;" d="M 49.71875 25.386719 L 49.71875 93.53125 L 82.445312 86.933594 L 90.410156 25.386719 Z M 49.71875 25.386719 "/>
<path style=" stroke:none;fill-rule:nonzero;fill:rgb(100%,100%,100%);fill-opacity:1;" d="M 75.753906 34.210938 L 25.433594 34.210938 L 21.929688 61.148438 L 22 60.980469 L 64.75 60.980469 L 63.359375 72.378906 L 49.71875 75.171875 L 35.878906 72.335938 L 35.046875 65.4375 L 22.484375 65.4375 L 24.277344 79.21875 L 49.71875 84.359375 L 75.171875 79.21875 L 78.679688 52.164062 L 33.304688 52.164062 L 33.886719 43.148438 L 65.367188 43.148438 L 65.839844 48.3125 L 78.511719 48.3125 Z M 75.753906 34.210938 "/>
<path style=" stroke:none;fill-rule:nonzero;fill:rgb(92.156863%,92.156863%,92.156863%);fill-opacity:1;" d="M 49.730469 34.210938 L 25.433594 34.210938 L 21.929688 61.148438 L 22 60.980469 L 49.726562 60.980469 L 49.726562 52.195312 L 35.074219 52.195312 L 35.660156 43.179688 L 49.730469 43.179688 Z M 35.074219 65.441406 L 22.480469 65.441406 L 24.273438 79.21875 L 49.71875 84.351562 L 49.71875 75.183594 L 35.875 72.339844 Z M 35.074219 65.441406 "/>
<path style=" stroke:none;fill-rule:nonzero;fill:rgb(13.72549%,12.156863%,12.54902%);fill-opacity:1;" d="M 40.046875 8.910156 L 31.195312 8.910156 L 31.195312 13.433594 L 46.386719 13.433594 L 46.386719 0 L 40.054688 0 Z M 68.246094 0.0703125 L 52.8125 0.0703125 L 52.8125 4.773438 C 54.875 6.242188 55.949219 6.945312 58.984375 9.070312 L 52.8125 9.070312 L 52.8125 13.359375 L 68.246094 13.359375 L 68.246094 9.078125 L 62.082031 4.78125 L 68.25 4.78125 Z M 68.246094 0.0703125 "/>
</g>
</svg>
